<?xml version="1.0" encoding="utf-8"?>
<!-- Generator: Adobe Illustrator 18.1.1, SVG Export Plug-In . SVG Version: 6.00 Build 0)  -->
<svg version="1.1" xmlns="http://www.w3.org/2000/svg" xmlns:xlink="http://www.w3.org/1999/xlink" x="0px" y="0px"
	 viewBox="0 0 462 503" enable-background="new 0 0 462 503" xml:space="preserve">

	<g>
		
			<polyline fill="none" stroke="#096EAF" stroke-width="3" stroke-linecap="round" stroke-linejoin="round" stroke-miterlimit="10" points="
			1.5,477 1.5,501.5 24,501.5 		"/>
		
			<polyline fill="none" stroke="#096EAF" stroke-width="3" stroke-linecap="round" stroke-linejoin="round" stroke-miterlimit="10" points="
			460.5,27 460.5,1.5 437,1.5 		"/>
		
			<polyline fill="none" stroke="#096EAF" stroke-width="3" stroke-linecap="round" stroke-linejoin="round" stroke-miterlimit="10" points="
			24,1.5 1.5,1.5 1.5,27 		"/>
		
			<polyline fill="none" stroke="#096EAF" stroke-width="3" stroke-linecap="round" stroke-linejoin="round" stroke-miterlimit="10" points="
			437,501.5 460.5,501.5 460.5,477 		"/>
		<g>
			<g>
				<g>
					
						<line fill="none" stroke="#096EAF" stroke-width="3" stroke-linecap="round" stroke-linejoin="round" stroke-miterlimit="10" x1="135" y1="326.5" x2="338" y2="326.5"/>
				</g>
				<g>
					
						<path fill="none" stroke="#096EAF" stroke-width="3" stroke-linecap="round" stroke-linejoin="round" stroke-miterlimit="10" d="
						M191.3,316.8l-5.3-4.3c-3-2.5-3.5-7-1-10l103.7-127.3c2.5-3,7-3.5,10-1l5.3,4.3c3,2.5,3.5,7,1,10L201.3,315.8
						C198.8,318.9,194.3,319.3,191.3,316.8z"/>
					
						<path fill="none" stroke="#096EAF" stroke-width="3" stroke-linecap="round" stroke-linejoin="round" stroke-miterlimit="10" d="
						M277.8,183.3L277.8,183.3c-3.6-2.9-9.5-1.6-13.2,2.9L232,226.3"/>
					
						<line fill="none" stroke="#096EAF" stroke-width="3" stroke-linecap="round" stroke-linejoin="round" stroke-miterlimit="10" x1="187.1" y1="314.8" x2="182" y2="321.2"/>
					
						<line fill="none" stroke="#096EAF" stroke-width="3" stroke-linecap="round" stroke-linejoin="round" stroke-miterlimit="10" x1="247.9" y1="239.5" x2="257.2" y2="247.2"/>
				</g>
			</g>
		</g>
	</g>
	
</svg>
