<?xml version="1.0" encoding="utf-8"?>
<!-- Generator: Adobe Illustrator 18.1.1, SVG Export Plug-In . SVG Version: 6.00 Build 0)  -->
<svg version="1.1" xmlns="http://www.w3.org/2000/svg" xmlns:xlink="http://www.w3.org/1999/xlink" x="0px" y="0px"
	 viewBox="0 0 32 37.9" enable-background="new 0 0 32 37.9" xml:space="preserve">
<g id="Layer_3">
	<rect x="-241.1" y="-482.3" fill="#F8F5F4" width="1487.3" height="2074.4"/>
</g>
<g id="Layer_6">
</g>
<g id="Layer_1">
	<g>
		<defs>
			<rect id="SVGID_195_" x="-0.4" y="0" width="1134.7" height="235.8"/>
		</defs>
		<clipPath id="SVGID_2_">
			<use xlink:href="#SVGID_195_"  overflow="visible"/>
		</clipPath>
		
			<line clip-path="url(#SVGID_2_)" fill="none" stroke="#ACACAC" stroke-miterlimit="10" x1="29.9" y1="-9.5" x2="396.8" y2="307.3"/>
		
			<line clip-path="url(#SVGID_2_)" fill="none" stroke="#ACACAC" stroke-miterlimit="10" x1="25.9" y1="-9.5" x2="392.8" y2="307.3"/>
		
			<line clip-path="url(#SVGID_2_)" fill="none" stroke="#ACACAC" stroke-miterlimit="10" x1="21.9" y1="-9.5" x2="388.8" y2="307.3"/>
		
			<line clip-path="url(#SVGID_2_)" fill="none" stroke="#ACACAC" stroke-miterlimit="10" x1="17.9" y1="-9.5" x2="384.8" y2="307.3"/>
		
			<line clip-path="url(#SVGID_2_)" fill="none" stroke="#ACACAC" stroke-miterlimit="10" x1="13.9" y1="-9.5" x2="380.8" y2="307.3"/>
		
			<line clip-path="url(#SVGID_2_)" fill="none" stroke="#ACACAC" stroke-miterlimit="10" x1="9.9" y1="-9.5" x2="376.8" y2="307.3"/>
		
			<line clip-path="url(#SVGID_2_)" fill="none" stroke="#ACACAC" stroke-miterlimit="10" x1="5.9" y1="-9.5" x2="372.8" y2="307.3"/>
		
			<line clip-path="url(#SVGID_2_)" fill="none" stroke="#ACACAC" stroke-miterlimit="10" x1="1.9" y1="-9.5" x2="368.8" y2="307.3"/>
		
			<line clip-path="url(#SVGID_2_)" fill="none" stroke="#ACACAC" stroke-miterlimit="10" x1="-2.1" y1="-9.5" x2="364.8" y2="307.3"/>
		
			<line clip-path="url(#SVGID_2_)" fill="none" stroke="#ACACAC" stroke-miterlimit="10" x1="-6.1" y1="-9.5" x2="360.8" y2="307.3"/>
		
			<line clip-path="url(#SVGID_2_)" fill="none" stroke="#ACACAC" stroke-miterlimit="10" x1="-10.1" y1="-9.5" x2="356.8" y2="307.3"/>
		
			<line clip-path="url(#SVGID_2_)" fill="none" stroke="#ACACAC" stroke-miterlimit="10" x1="-14.1" y1="-9.5" x2="352.8" y2="307.3"/>
		
			<line clip-path="url(#SVGID_2_)" fill="none" stroke="#ACACAC" stroke-miterlimit="10" x1="-18.1" y1="-9.5" x2="348.8" y2="307.3"/>
		
			<line clip-path="url(#SVGID_2_)" fill="none" stroke="#ACACAC" stroke-miterlimit="10" x1="-22.1" y1="-9.5" x2="344.8" y2="307.3"/>
		
			<line clip-path="url(#SVGID_2_)" fill="none" stroke="#ACACAC" stroke-miterlimit="10" x1="-26.1" y1="-9.5" x2="340.8" y2="307.3"/>
		
			<line clip-path="url(#SVGID_2_)" fill="none" stroke="#ACACAC" stroke-miterlimit="10" x1="-30.1" y1="-9.5" x2="336.8" y2="307.3"/>
		
			<line clip-path="url(#SVGID_2_)" fill="none" stroke="#ACACAC" stroke-miterlimit="10" x1="-34.1" y1="-9.5" x2="332.8" y2="307.3"/>
		
			<line clip-path="url(#SVGID_2_)" fill="none" stroke="#ACACAC" stroke-miterlimit="10" x1="-38.1" y1="-9.5" x2="328.8" y2="307.3"/>
		
			<line clip-path="url(#SVGID_2_)" fill="none" stroke="#ACACAC" stroke-miterlimit="10" x1="-42.1" y1="-9.5" x2="324.8" y2="307.3"/>
		
			<line clip-path="url(#SVGID_2_)" fill="none" stroke="#ACACAC" stroke-miterlimit="10" x1="-46.1" y1="-9.5" x2="320.8" y2="307.3"/>
		
			<line clip-path="url(#SVGID_2_)" fill="none" stroke="#ACACAC" stroke-miterlimit="10" x1="-50.1" y1="-9.5" x2="316.8" y2="307.3"/>
		
			<line clip-path="url(#SVGID_2_)" fill="none" stroke="#ACACAC" stroke-miterlimit="10" x1="-54.1" y1="-9.5" x2="312.8" y2="307.3"/>
		
			<line clip-path="url(#SVGID_2_)" fill="none" stroke="#ACACAC" stroke-miterlimit="10" x1="-58.1" y1="-9.5" x2="308.8" y2="307.3"/>
		
			<line clip-path="url(#SVGID_2_)" fill="none" stroke="#ACACAC" stroke-miterlimit="10" x1="-62.1" y1="-9.5" x2="304.8" y2="307.3"/>
		
			<line clip-path="url(#SVGID_2_)" fill="none" stroke="#ACACAC" stroke-miterlimit="10" x1="-66.1" y1="-9.5" x2="300.8" y2="307.3"/>
		
			<line clip-path="url(#SVGID_2_)" fill="none" stroke="#ACACAC" stroke-miterlimit="10" x1="-70.1" y1="-9.5" x2="296.8" y2="307.3"/>
		
			<line clip-path="url(#SVGID_2_)" fill="none" stroke="#ACACAC" stroke-miterlimit="10" x1="-74.1" y1="-9.5" x2="292.8" y2="307.3"/>
		
			<line clip-path="url(#SVGID_2_)" fill="none" stroke="#ACACAC" stroke-miterlimit="10" x1="-78.1" y1="-9.5" x2="288.8" y2="307.3"/>
		
			<line clip-path="url(#SVGID_2_)" fill="none" stroke="#ACACAC" stroke-miterlimit="10" x1="-82.1" y1="-9.5" x2="284.8" y2="307.3"/>
		
			<line clip-path="url(#SVGID_2_)" fill="none" stroke="#ACACAC" stroke-miterlimit="10" x1="-86.1" y1="-9.5" x2="280.8" y2="307.3"/>
		
			<line clip-path="url(#SVGID_2_)" fill="none" stroke="#ACACAC" stroke-miterlimit="10" x1="-90.1" y1="-9.5" x2="276.8" y2="307.3"/>
		
			<line clip-path="url(#SVGID_2_)" fill="none" stroke="#ACACAC" stroke-miterlimit="10" x1="-94.1" y1="-9.5" x2="272.8" y2="307.3"/>
		
			<line clip-path="url(#SVGID_2_)" fill="none" stroke="#ACACAC" stroke-miterlimit="10" x1="-98.1" y1="-9.5" x2="268.8" y2="307.3"/>
		
			<line clip-path="url(#SVGID_2_)" fill="none" stroke="#ACACAC" stroke-miterlimit="10" x1="-102.1" y1="-9.5" x2="264.8" y2="307.3"/>
		
			<line clip-path="url(#SVGID_2_)" fill="none" stroke="#ACACAC" stroke-miterlimit="10" x1="-106.1" y1="-9.5" x2="260.8" y2="307.3"/>
		
			<line clip-path="url(#SVGID_2_)" fill="none" stroke="#ACACAC" stroke-miterlimit="10" x1="-110.1" y1="-9.5" x2="256.8" y2="307.3"/>
		
			<line clip-path="url(#SVGID_2_)" fill="none" stroke="#ACACAC" stroke-miterlimit="10" x1="-114.1" y1="-9.5" x2="252.8" y2="307.3"/>
		
			<line clip-path="url(#SVGID_2_)" fill="none" stroke="#ACACAC" stroke-miterlimit="10" x1="-118.1" y1="-9.5" x2="248.8" y2="307.3"/>
		
			<line clip-path="url(#SVGID_2_)" fill="none" stroke="#ACACAC" stroke-miterlimit="10" x1="-122.1" y1="-9.5" x2="244.8" y2="307.3"/>
		
			<line clip-path="url(#SVGID_2_)" fill="none" stroke="#ACACAC" stroke-miterlimit="10" x1="-126.1" y1="-9.5" x2="240.8" y2="307.3"/>
		
			<line clip-path="url(#SVGID_2_)" fill="none" stroke="#ACACAC" stroke-miterlimit="10" x1="-130.1" y1="-9.5" x2="236.8" y2="307.3"/>
		
			<line clip-path="url(#SVGID_2_)" fill="none" stroke="#ACACAC" stroke-miterlimit="10" x1="-134.1" y1="-9.5" x2="232.8" y2="307.3"/>
		
			<line clip-path="url(#SVGID_2_)" fill="none" stroke="#ACACAC" stroke-miterlimit="10" x1="-138.1" y1="-9.5" x2="228.8" y2="307.3"/>
		
			<line clip-path="url(#SVGID_2_)" fill="none" stroke="#ACACAC" stroke-miterlimit="10" x1="-142.1" y1="-9.5" x2="224.8" y2="307.3"/>
		
			<line clip-path="url(#SVGID_2_)" fill="none" stroke="#ACACAC" stroke-miterlimit="10" x1="-146.1" y1="-9.5" x2="220.8" y2="307.3"/>
		
			<line clip-path="url(#SVGID_2_)" fill="none" stroke="#ACACAC" stroke-miterlimit="10" x1="-150.1" y1="-9.5" x2="216.8" y2="307.3"/>
		
			<line clip-path="url(#SVGID_2_)" fill="none" stroke="#ACACAC" stroke-miterlimit="10" x1="-154.1" y1="-9.5" x2="212.8" y2="307.3"/>
		
			<line clip-path="url(#SVGID_2_)" fill="none" stroke="#ACACAC" stroke-miterlimit="10" x1="-158.1" y1="-9.5" x2="208.8" y2="307.3"/>
		
			<line clip-path="url(#SVGID_2_)" fill="none" stroke="#ACACAC" stroke-miterlimit="10" x1="-162.1" y1="-9.5" x2="204.8" y2="307.3"/>
		
			<line clip-path="url(#SVGID_2_)" fill="none" stroke="#ACACAC" stroke-miterlimit="10" x1="-166.1" y1="-9.5" x2="200.8" y2="307.3"/>
		
			<line clip-path="url(#SVGID_2_)" fill="none" stroke="#ACACAC" stroke-miterlimit="10" x1="-170.1" y1="-9.5" x2="196.8" y2="307.3"/>
		
			<line clip-path="url(#SVGID_2_)" fill="none" stroke="#ACACAC" stroke-miterlimit="10" x1="-174.1" y1="-9.5" x2="192.8" y2="307.3"/>
		
			<line clip-path="url(#SVGID_2_)" fill="none" stroke="#ACACAC" stroke-miterlimit="10" x1="-178.1" y1="-9.5" x2="188.8" y2="307.3"/>
		
			<line clip-path="url(#SVGID_2_)" fill="none" stroke="#ACACAC" stroke-miterlimit="10" x1="-182.1" y1="-9.5" x2="184.8" y2="307.3"/>
		
			<line clip-path="url(#SVGID_2_)" fill="none" stroke="#ACACAC" stroke-miterlimit="10" x1="-186.1" y1="-9.5" x2="180.8" y2="307.3"/>
		
			<line clip-path="url(#SVGID_2_)" fill="none" stroke="#ACACAC" stroke-miterlimit="10" x1="-190.1" y1="-9.5" x2="176.8" y2="307.3"/>
		
			<line clip-path="url(#SVGID_2_)" fill="none" stroke="#ACACAC" stroke-miterlimit="10" x1="-194.1" y1="-9.5" x2="172.8" y2="307.3"/>
		
			<line clip-path="url(#SVGID_2_)" fill="none" stroke="#ACACAC" stroke-miterlimit="10" x1="-198.1" y1="-9.5" x2="168.8" y2="307.3"/>
		
			<line clip-path="url(#SVGID_2_)" fill="none" stroke="#ACACAC" stroke-miterlimit="10" x1="-202.1" y1="-9.5" x2="164.8" y2="307.3"/>
		
			<line clip-path="url(#SVGID_2_)" fill="none" stroke="#ACACAC" stroke-miterlimit="10" x1="-206.1" y1="-9.5" x2="160.8" y2="307.3"/>
		
			<line clip-path="url(#SVGID_2_)" fill="none" stroke="#ACACAC" stroke-miterlimit="10" x1="-210.1" y1="-9.5" x2="156.8" y2="307.3"/>
		
			<line clip-path="url(#SVGID_2_)" fill="none" stroke="#ACACAC" stroke-miterlimit="10" x1="-214.1" y1="-9.5" x2="152.8" y2="307.3"/>
		
			<line clip-path="url(#SVGID_2_)" fill="none" stroke="#ACACAC" stroke-miterlimit="10" x1="-218.1" y1="-9.5" x2="148.8" y2="307.3"/>
		
			<line clip-path="url(#SVGID_2_)" fill="none" stroke="#ACACAC" stroke-miterlimit="10" x1="-222.1" y1="-9.5" x2="144.8" y2="307.3"/>
		
			<line clip-path="url(#SVGID_2_)" fill="none" stroke="#ACACAC" stroke-miterlimit="10" x1="-226.1" y1="-9.5" x2="140.8" y2="307.3"/>
		
			<line clip-path="url(#SVGID_2_)" fill="none" stroke="#ACACAC" stroke-miterlimit="10" x1="-230.1" y1="-9.5" x2="136.8" y2="307.3"/>
		
			<line clip-path="url(#SVGID_2_)" fill="none" stroke="#ACACAC" stroke-miterlimit="10" x1="-234.1" y1="-9.5" x2="132.8" y2="307.3"/>
		
			<line clip-path="url(#SVGID_2_)" fill="none" stroke="#ACACAC" stroke-miterlimit="10" x1="-238.1" y1="-9.5" x2="128.8" y2="307.3"/>
		
			<line clip-path="url(#SVGID_2_)" fill="none" stroke="#ACACAC" stroke-miterlimit="10" x1="-242.1" y1="-9.5" x2="124.8" y2="307.3"/>
		
			<line clip-path="url(#SVGID_2_)" fill="none" stroke="#ACACAC" stroke-miterlimit="10" x1="-246.1" y1="-9.5" x2="120.8" y2="307.3"/>
		
			<line clip-path="url(#SVGID_2_)" fill="none" stroke="#ACACAC" stroke-miterlimit="10" x1="-250.1" y1="-9.5" x2="116.8" y2="307.3"/>
		
			<line clip-path="url(#SVGID_2_)" fill="none" stroke="#ACACAC" stroke-miterlimit="10" x1="-254.1" y1="-9.5" x2="112.8" y2="307.3"/>
		
			<line clip-path="url(#SVGID_2_)" fill="none" stroke="#ACACAC" stroke-miterlimit="10" x1="-258.1" y1="-9.5" x2="108.8" y2="307.3"/>
		
			<line clip-path="url(#SVGID_2_)" fill="none" stroke="#ACACAC" stroke-miterlimit="10" x1="-262.1" y1="-9.5" x2="104.8" y2="307.3"/>
		
			<line clip-path="url(#SVGID_2_)" fill="none" stroke="#ACACAC" stroke-miterlimit="10" x1="-266.1" y1="-9.5" x2="100.8" y2="307.3"/>
		
			<line clip-path="url(#SVGID_2_)" fill="none" stroke="#ACACAC" stroke-miterlimit="10" x1="-270.1" y1="-9.5" x2="96.8" y2="307.3"/>
		
			<line clip-path="url(#SVGID_2_)" fill="none" stroke="#ACACAC" stroke-miterlimit="10" x1="-274.1" y1="-9.5" x2="92.8" y2="307.3"/>
		
			<line clip-path="url(#SVGID_2_)" fill="none" stroke="#ACACAC" stroke-miterlimit="10" x1="-278.1" y1="-9.5" x2="88.8" y2="307.3"/>
		
			<line clip-path="url(#SVGID_2_)" fill="none" stroke="#ACACAC" stroke-miterlimit="10" x1="-282.1" y1="-9.5" x2="84.8" y2="307.3"/>
		
			<line clip-path="url(#SVGID_2_)" fill="none" stroke="#ACACAC" stroke-miterlimit="10" x1="-286.1" y1="-9.5" x2="80.8" y2="307.3"/>
	</g>
</g>
<g id="Layer_2" display="none">
	<g display="inline">
		<rect x="24.3" y="-509.6" opacity="0.15" fill="#FF0000" width="68" height="5757.8"/>
	</g>
</g>
</svg>
