<?xml version="1.0" encoding="utf-8"?>
<!-- Generator: Adobe Illustrator 18.1.1, SVG Export Plug-In . SVG Version: 6.00 Build 0)  -->
<svg version="1.1" xmlns="http://www.w3.org/2000/svg" xmlns:xlink="http://www.w3.org/1999/xlink" x="0px" y="0px"
	 viewBox="0 0 34.3 34.3" enable-background="new 0 0 34.3 34.3" xml:space="preserve">

<g id="Layer_1">
	<g>

		<g>
			<path fill="#E62326" d="M30.8,9.4c-3-8.8-12.7-9.2-12.7-9.2c-0.8,0-0.8,0.8-0.8,0.8v5.5c2.3,0.3,2.5-1.7,2.5-1.7L20,3
				c1.3,0.3,2.3,0.7,3.2,1.1c-1.1,0.1-2,1.1-2,2.2c0,1.3,1,2.3,2.3,2.3c1.3,0,2.3-1,2.3-2.3c0-0.2,0-0.4-0.1-0.6
				c1.6,1.4,2.2,2.8,2.2,2.8l-1.6,0.5c-1.6,0.4-1.6,1.3-1.6,1.3l0,1.9l5.6-2C31,10.1,30.8,9.4,30.8,9.4z"/>
			<path fill="#D71B58" d="M32,12.9c-0.2-0.7-1-0.5-1-0.5L25.7,14c0.4,2.3,2.4,1.9,2.4,1.9l1.8-0.4c0.1,1.3,0,2.4-0.1,3.4
				c-0.5-1-1.6-1.6-2.7-1.2c-1.2,0.4-1.9,1.6-1.5,2.8c0.4,1.2,1.6,1.9,2.8,1.5c0.2-0.1,0.4-0.2,0.5-0.3c-0.9,2-2,2.9-2,2.9L26,23.3
				c-0.9-1.4-1.7-1.1-1.7-1.1l-1.8,0.6l3.6,4.7c0.4,0.7,1,0.2,1,0.2C34.5,22.2,32,12.9,32,12.9z"/>
			<path fill="#B81D80" d="M24.3,28.7l-3.2-4.5c-2,1.1-1.1,2.8-1.1,2.8l1,1.6c-1.2,0.5-2.3,0.8-3.3,1c0.8-0.8,1-2,0.3-3
				c-0.7-1-2.1-1.3-3.2-0.5c-1,0.7-1.3,2.1-0.5,3.2c0.1,0.2,0.3,0.3,0.4,0.4c-2.2-0.2-3.4-1-3.4-1l1-1.3c1.1-1.3,0.5-2,0.5-2
				l-1.1-1.5l-3.4,4.9c-0.5,0.6,0.1,1,0.1,1c7.5,5.4,15.7,0.1,15.7,0.1C24.8,29.3,24.3,28.7,24.3,28.7z"/>
			<path fill="#096EAF" d="M6.7,22.8l-1.2,1.4c-0.8-1-1.4-1.9-1.9-2.9c1,0.6,2.2,0.3,2.9-0.6c0.8-1,0.6-2.4-0.4-3.2
				c-1-0.8-2.4-0.6-3.2,0.4c-0.1,0.2-0.2,0.3-0.3,0.5c-0.4-2.1,0-3.6,0-3.6l1.5,0.6c1.5,0.6,2.1-0.1,2.1-0.1l1.1-1.5l-5.7-1.8
				c-0.7-0.3-1,0.4-1,0.4c-2.9,8.8,4.5,15,4.5,15c0.6,0.5,1.1-0.2,1.1-0.2L9.7,23C8,21.4,6.7,22.8,6.7,22.8z"/>
			<path fill="#F8AC3D" d="M15.3,1.1c0-0.8-0.7-0.8-0.7-0.8c-9.3,0-12.8,9-12.8,9c-0.2,0.7,0.5,1,0.5,1l5.2,1.8
				c1-2.1-0.8-2.9-0.8-2.9L5,8.5c0.7-1.1,1.4-2,2.1-2.7C6.9,6.9,7.5,8,8.6,8.4c1.2,0.4,2.5-0.2,2.9-1.4c0.4-1.2-0.2-2.5-1.4-2.9
				C9.9,4.1,9.7,4,9.5,4c1.9-1.1,3.4-1.1,3.4-1.1l-0.1,1.7c-0.1,1.7,0.7,2,0.7,2l1.8,0.6L15.3,1.1z"/>
		</g>
	</g>
</g>

</svg>
