<?xml version="1.0" encoding="utf-8"?>
<!-- Generator: Adobe Illustrator 18.1.1, SVG Export Plug-In . SVG Version: 6.00 Build 0)  -->
<svg version="1.1" xmlns="http://www.w3.org/2000/svg" xmlns:xlink="http://www.w3.org/1999/xlink" x="0px" y="0px"
	 viewBox="0 0 41.2 51.5" enable-background="new 0 0 41.2 51.5" xml:space="preserve">

<g id="Layer_1">
	<g>
	<g>
		<defs>
			<polygon id="SVGID_259_" points="41.2,51.5 4.7,51.5 4.7,16.9 34,8.9 41.2,14.9 			"/>
		</defs>
		<clipPath id="SVGID_2_">
			<use xlink:href="#SVGID_259_"  overflow="visible"/>
		</clipPath>
		
			<line clip-path="url(#SVGID_2_)" fill="none" stroke="#ACACAC" stroke-miterlimit="10" x1="-277.1" y1="-192.8" x2="89.8" y2="124"/>
		
			<line clip-path="url(#SVGID_2_)" fill="none" stroke="#ACACAC" stroke-miterlimit="10" x1="-269.1" y1="-192.8" x2="97.8" y2="124"/>
		
			<line clip-path="url(#SVGID_2_)" fill="none" stroke="#ACACAC" stroke-miterlimit="10" x1="-261.1" y1="-192.8" x2="105.8" y2="124"/>
		
			<line clip-path="url(#SVGID_2_)" fill="none" stroke="#ACACAC" stroke-miterlimit="10" x1="-253.1" y1="-192.8" x2="113.8" y2="124"/>
		
			<line clip-path="url(#SVGID_2_)" fill="none" stroke="#ACACAC" stroke-miterlimit="10" x1="-245.1" y1="-192.8" x2="121.8" y2="124"/>
		
			<line clip-path="url(#SVGID_2_)" fill="none" stroke="#ACACAC" stroke-miterlimit="10" x1="-237.1" y1="-192.8" x2="129.8" y2="124"/>
		
			<line clip-path="url(#SVGID_2_)" fill="none" stroke="#ACACAC" stroke-miterlimit="10" x1="-229.1" y1="-192.8" x2="137.8" y2="124"/>
		
			<line clip-path="url(#SVGID_2_)" fill="none" stroke="#ACACAC" stroke-miterlimit="10" x1="-221.1" y1="-192.8" x2="145.8" y2="124"/>
		
			<line clip-path="url(#SVGID_2_)" fill="none" stroke="#ACACAC" stroke-miterlimit="10" x1="-213.1" y1="-192.8" x2="153.8" y2="124"/>
		
			<line clip-path="url(#SVGID_2_)" fill="none" stroke="#ACACAC" stroke-miterlimit="10" x1="-205.1" y1="-192.8" x2="161.8" y2="124"/>
		
			<line clip-path="url(#SVGID_2_)" fill="none" stroke="#ACACAC" stroke-miterlimit="10" x1="-197.1" y1="-192.8" x2="169.8" y2="124"/>
		
			<line clip-path="url(#SVGID_2_)" fill="none" stroke="#ACACAC" stroke-miterlimit="10" x1="-189.1" y1="-192.8" x2="177.8" y2="124"/>
		
			<line clip-path="url(#SVGID_2_)" fill="none" stroke="#ACACAC" stroke-miterlimit="10" x1="-281.1" y1="-192.8" x2="85.8" y2="124"/>
		
			<line clip-path="url(#SVGID_2_)" fill="none" stroke="#ACACAC" stroke-miterlimit="10" x1="-273.1" y1="-192.8" x2="93.8" y2="124"/>
		
			<line clip-path="url(#SVGID_2_)" fill="none" stroke="#ACACAC" stroke-miterlimit="10" x1="-265.1" y1="-192.8" x2="101.8" y2="124"/>
		
			<line clip-path="url(#SVGID_2_)" fill="none" stroke="#ACACAC" stroke-miterlimit="10" x1="-257.1" y1="-192.8" x2="109.8" y2="124"/>
		
			<line clip-path="url(#SVGID_2_)" fill="none" stroke="#ACACAC" stroke-miterlimit="10" x1="-249.1" y1="-192.8" x2="117.8" y2="124"/>
		
			<line clip-path="url(#SVGID_2_)" fill="none" stroke="#ACACAC" stroke-miterlimit="10" x1="-241.1" y1="-192.8" x2="125.8" y2="124"/>
		
			<line clip-path="url(#SVGID_2_)" fill="none" stroke="#ACACAC" stroke-miterlimit="10" x1="-233.1" y1="-192.8" x2="133.8" y2="124"/>
		
			<line clip-path="url(#SVGID_2_)" fill="none" stroke="#ACACAC" stroke-miterlimit="10" x1="-225.1" y1="-192.8" x2="141.8" y2="124"/>
		
			<line clip-path="url(#SVGID_2_)" fill="none" stroke="#ACACAC" stroke-miterlimit="10" x1="-217.1" y1="-192.8" x2="149.8" y2="124"/>
		
			<line clip-path="url(#SVGID_2_)" fill="none" stroke="#ACACAC" stroke-miterlimit="10" x1="-209.1" y1="-192.8" x2="157.8" y2="124"/>
		
			<line clip-path="url(#SVGID_2_)" fill="none" stroke="#ACACAC" stroke-miterlimit="10" x1="-201.1" y1="-192.8" x2="165.8" y2="124"/>
		
			<line clip-path="url(#SVGID_2_)" fill="none" stroke="#ACACAC" stroke-miterlimit="10" x1="-193.1" y1="-192.8" x2="173.8" y2="124"/>
		
			<line clip-path="url(#SVGID_2_)" fill="none" stroke="#ACACAC" stroke-miterlimit="10" x1="-185.1" y1="-192.8" x2="181.8" y2="124"/>
	</g>
	<g>
		<g>
			
				<polygon fill="#FFFFFF" stroke="#939393" stroke-width="2" stroke-linecap="round" stroke-linejoin="round" stroke-miterlimit="10" points="
				36.9,46.2 1,46.2 1,1 27.9,1 36.9,10 			"/>
			
				<polygon fill="#FFFFFF" stroke="#939393" stroke-width="2" stroke-linecap="round" stroke-linejoin="round" stroke-miterlimit="10" points="
				27.9,1 27.9,10 36.9,10 			"/>
		</g>
		<path fill="#E62326" d="M25.9,17.7h-1.8c-0.3,0-0.6-0.3-0.6-0.6v-4.6c0-0.8-0.6-1.4-1.4-1.4h-6.7c-0.6,0-1.1,0.5-1.1,1.1v5
			c0,0.3-0.3,0.6-0.6,0.6h-1.6c-0.9,0-1.4,1.1-0.7,1.7l6.5,6.5c0.6,0.6,1.5,0.6,2.1,0l6.5-6.5C27.2,18.8,26.8,17.7,25.9,17.7z"/>
	</g>
	<g>
		<text transform="matrix(1 0 0 1 9.7159 37.8267)" fill="#E62326" font-family="'PTSans-Bold'" font-size="11">PDF</text>
	</g>
</g>
</svg>
