<?xml version="1.0" encoding="utf-8"?>
<!-- Generator: Adobe Illustrator 18.1.1, SVG Export Plug-In . SVG Version: 6.00 Build 0)  -->
<svg version="1.1" xmlns="http://www.w3.org/2000/svg" xmlns:xlink="http://www.w3.org/1999/xlink" x="0px" y="0px"
	 viewBox="0 0 18 18.1" enable-background="new 0 0 18 18.1" xml:space="preserve">

		<g>
			<path fill="#FFFFFF" d="M0,18.1V9.1c0-2.4,0.6-4.4,1.9-6C3.2,1.6,5,0.5,7.2,0v3.9C5.8,4.4,5,5,4.6,5.8C4.2,6.7,4,7.8,4,9.1v0.9
				h3.2v8H0z M10.8,18.1V9.1c0-2.4,0.6-4.4,1.9-6C14,1.6,15.8,0.5,18,0v3.9c-1.4,0.4-2.3,1.1-2.6,1.9c-0.4,0.8-0.6,1.9-0.6,3.3v0.9
				H18v8H10.8z"/>
		</g>

</svg>
