<?xml version="1.0" encoding="utf-8"?>
<!-- Generator: Adobe Illustrator 18.1.1, SVG Export Plug-In . SVG Version: 6.00 Build 0)  -->
<svg version="1.1" xmlns="http://www.w3.org/2000/svg" xmlns:xlink="http://www.w3.org/1999/xlink" x="0px" y="0px"
	 viewBox="0 0 161.9 34.3" enable-background="new 0 0 161.9 34.3" xml:space="preserve">


	
	<g>
		<g>
			<path fill="#231F20" d="M11.2,31.7c-0.4,0.4-1.1,0.6-1.8,0.6c-0.7,0-1.4-0.2-1.8-0.7C7.3,31.3,7,30.8,7,30.3h0.5
				c0,0.4,0.2,0.7,0.5,1c0.3,0.4,0.9,0.5,1.4,0.5c0.6,0,1.1-0.1,1.5-0.5c0.2-0.2,0.4-0.5,0.4-0.9c0-0.6-0.5-1.2-1.3-1.3L8.8,29
				c-0.9-0.1-1.6-0.6-1.6-1.6c0-0.5,0.2-0.9,0.6-1.2c0.4-0.4,1-0.6,1.6-0.6c0.7,0,1.4,0.3,1.8,0.7c0.3,0.3,0.5,0.7,0.5,1.1h-0.5
				c0-0.3-0.1-0.6-0.4-0.8C10.5,26.3,10,26,9.4,26c-0.5,0-0.9,0.1-1.2,0.4c-0.2,0.2-0.4,0.5-0.4,0.9c0,0.8,0.6,1.1,1.1,1.1l1.2,0.2
				c1,0.1,1.7,0.9,1.7,1.8C11.8,31,11.5,31.4,11.2,31.7z"/>
			<path fill="#231F20" d="M14.7,32.3c-0.6,0-1-0.2-1.3-0.5c-0.5-0.5-0.6-1.1-0.6-1.9c0-0.8,0.2-1.4,0.6-1.9
				c0.3-0.3,0.8-0.5,1.3-0.5c1,0,1.7,0.6,1.8,1.5H16c-0.1-0.6-0.6-1.1-1.3-1.1c-0.4,0-0.8,0.1-1,0.4c-0.4,0.4-0.5,1-0.5,1.6
				s0.1,1.1,0.5,1.6c0.2,0.2,0.6,0.4,1,0.4c0.7,0,1.2-0.5,1.3-1.1h0.5C16.4,31.6,15.7,32.3,14.7,32.3z"/>
			<path fill="#231F20" d="M20.9,32.2v-3c0-0.8-0.3-1.3-1.2-1.3c-1.1,0-1.5,1-1.5,2v2.3h-0.5v-6.6h0.5v2.9c0.3-0.6,0.9-1,1.5-1
				c1.1,0,1.6,0.7,1.6,1.7v3H20.9z"/>
			<path fill="#231F20" d="M26.1,31.8c-0.3,0.3-0.8,0.6-1.3,0.6c-0.6,0-1-0.2-1.3-0.6c-0.5-0.5-0.7-1.1-0.7-1.9
				c0-0.8,0.2-1.4,0.7-1.9c0.3-0.3,0.8-0.6,1.3-0.6c0.6,0,1,0.2,1.3,0.6c0.5,0.5,0.7,1.1,0.7,1.9C26.7,30.7,26.5,31.3,26.1,31.8z
				 M25.7,28.4c-0.2-0.2-0.6-0.4-1-0.4c-0.4,0-0.8,0.2-1,0.4c-0.4,0.4-0.5,1-0.5,1.6s0.1,1.1,0.5,1.6c0.2,0.2,0.6,0.4,1,0.4
				c0.4,0,0.8-0.2,1-0.4c0.4-0.4,0.5-1,0.5-1.6S26.1,28.8,25.7,28.4z"/>
			<path fill="#231F20" d="M31.1,31.8c-0.3,0.3-0.8,0.6-1.3,0.6c-0.6,0-1-0.2-1.3-0.6c-0.5-0.5-0.7-1.1-0.7-1.9
				c0-0.8,0.2-1.4,0.7-1.9c0.3-0.3,0.8-0.6,1.3-0.6c0.6,0,1,0.2,1.3,0.6c0.5,0.5,0.7,1.1,0.7,1.9C31.7,30.7,31.6,31.3,31.1,31.8z
				 M30.7,28.4c-0.2-0.2-0.6-0.4-1-0.4c-0.4,0-0.8,0.2-1,0.4c-0.4,0.4-0.5,1-0.5,1.6s0.1,1.1,0.5,1.6c0.2,0.2,0.6,0.4,1,0.4
				c0.4,0,0.8-0.2,1-0.4c0.4-0.4,0.5-1,0.5-1.6S31.2,28.8,30.7,28.4z"/>
			<path fill="#231F20" d="M34,32.3c-0.6,0-0.9-0.3-0.9-1v-5.7h0.5v5.7c0,0.3,0.1,0.6,0.5,0.6c0.2,0,0.3,0,0.4,0v0.4
				C34.3,32.2,34.2,32.3,34,32.3z"/>
			<path fill="#231F20" d="M40.6,31.8c-0.3,0.3-0.8,0.6-1.3,0.6c-0.6,0-1-0.2-1.3-0.6c-0.5-0.5-0.7-1.1-0.7-1.9
				c0-0.8,0.2-1.4,0.7-1.9c0.3-0.3,0.8-0.6,1.3-0.6c0.6,0,1,0.2,1.3,0.6c0.5,0.5,0.7,1.1,0.7,1.9C41.3,30.7,41.1,31.3,40.6,31.8z
				 M40.3,28.4c-0.2-0.2-0.6-0.4-1-0.4c-0.4,0-0.8,0.2-1,0.4c-0.4,0.4-0.5,1-0.5,1.6s0.1,1.1,0.5,1.6c0.2,0.2,0.6,0.4,1,0.4
				c0.4,0,0.8-0.2,1-0.4c0.4-0.4,0.5-1,0.5-1.6S40.7,28.8,40.3,28.4z"/>
			<path fill="#231F20" d="M44.3,25.9c-0.6,0-0.9,0.3-0.9,0.9v0.8h1.4V28h-1.4v4.2h-0.5V28H42v-0.4h0.9v-0.8c0-0.7,0.4-1.3,1.3-1.3
				c0.3,0,0.5,0,0.7,0.1V26C44.7,26,44.5,25.9,44.3,25.9z"/>
			<path fill="#231F20" d="M47.9,32.2v-6.5h0.5v6.5H47.9z"/>
			<path fill="#231F20" d="M53.5,32.2v-3c0-0.8-0.3-1.3-1.2-1.3c-1.1,0-1.5,1-1.5,2v2.3h-0.5v-4.6h0.4l0.1,0.8c0.3-0.6,0.9-1,1.5-1
				c1.1,0,1.6,0.7,1.6,1.7v3H53.5z"/>
			<path fill="#231F20" d="M57.1,32.3c-0.9,0-1.2-0.5-1.2-1.3V28H55v-0.4h0.9v-1.3l0.5-0.1v1.4h1.4V28h-1.4v2.9
				c0,0.5,0.1,0.9,0.8,0.9c0.2,0,0.5,0,0.7-0.1v0.4C57.6,32.2,57.3,32.3,57.1,32.3z"/>
			<path fill="#231F20" d="M62.5,30H59c0,0.5,0.2,1,0.5,1.4c0.3,0.3,0.6,0.5,1.1,0.5c0.4,0,0.8-0.1,1-0.4c0.2-0.2,0.3-0.4,0.3-0.7
				h0.5c-0.1,0.4-0.3,0.7-0.5,1c-0.3,0.3-0.8,0.5-1.3,0.5c-0.7,0-1.1-0.3-1.5-0.7c-0.4-0.4-0.6-1-0.6-1.7c0-0.6,0.1-1.1,0.4-1.6
				c0.4-0.5,0.9-0.8,1.6-0.8c1.2,0,2,1.1,2,2.2C62.5,29.8,62.5,29.9,62.5,30z M60.6,27.9c-0.9,0-1.5,0.8-1.5,1.7h3
				C62,28.7,61.5,27.9,60.6,27.9z"/>
			<path fill="#231F20" d="M67.3,33.7c-0.4,0.4-1.1,0.5-1.8,0.5c-0.7,0-1.3-0.1-1.7-0.5c-0.2-0.2-0.3-0.5-0.3-0.8
				c0-0.4,0.3-0.9,0.7-1.1c-0.3-0.1-0.6-0.4-0.6-0.8c0-0.4,0.2-0.7,0.5-0.9c-0.3-0.3-0.5-0.7-0.5-1.1c0-1,0.8-1.6,1.7-1.6
				c0.4,0,0.8,0.1,1.1,0.3c0.1-0.4,0.5-0.6,0.9-0.6c0.1,0,0.1,0,0.2,0v0.4c-0.1,0-0.1,0-0.2,0c-0.3,0-0.6,0.2-0.6,0.5
				c0.2,0.3,0.4,0.6,0.4,1c0,1-0.8,1.6-1.7,1.6c-0.3,0-0.7-0.1-0.9-0.2C64.3,30.6,64,30.8,64,31c0,0.2,0.1,0.4,0.3,0.4
				c0.2,0.1,0.4,0.1,0.6,0.1h1c0.6,0,1.1,0.1,1.3,0.4c0.2,0.2,0.4,0.5,0.4,0.9C67.7,33.2,67.5,33.5,67.3,33.7z M67,32.3
				c-0.2-0.2-0.6-0.3-1.1-0.3h-1.2c-0.4,0.1-0.8,0.4-0.8,0.9c0,0.2,0.1,0.4,0.2,0.6c0.3,0.3,0.9,0.4,1.4,0.4c0.5,0,1.1-0.1,1.5-0.4
				c0.1-0.1,0.2-0.3,0.2-0.6C67.2,32.6,67.2,32.5,67,32.3z M65.4,27.9c-0.7,0-1.3,0.5-1.3,1.2c0,0.7,0.5,1.2,1.3,1.2
				c0.7,0,1.3-0.4,1.3-1.2C66.7,28.4,66.1,27.9,65.4,27.9z"/>
			<path fill="#231F20" d="M70.7,28c-1.1,0-1.5,1-1.5,2v2.2h-0.5v-4.6h0.4l0.1,0.9c0.2-0.6,0.8-1,1.5-1c0.1,0,0.3,0,0.4,0v0.5
				C71,28,70.8,28,70.7,28z"/>
			<path fill="#231F20" d="M75.8,32.2c-0.6,0-0.7-0.4-0.7-0.9c-0.2,0.7-0.9,1-1.7,1c-0.9,0-1.6-0.5-1.6-1.4c0-0.8,0.6-1.3,1.5-1.4
				l1.7-0.1V29c0-0.8-0.5-1-1.2-1c-0.7,0-1.3,0.3-1.3,1H72c0.1-0.9,0.8-1.4,1.8-1.4c0.6,0,1.3,0.2,1.5,0.8c0.1,0.3,0.1,0.6,0.1,0.9
				v2.1c0,0.3,0,0.5,0.4,0.5c0.1,0,0.1,0,0.1,0v0.4C75.9,32.2,75.9,32.2,75.8,32.2z M75,29.8l-1.6,0.1c-0.7,0-1.1,0.4-1.1,1
				c0,0.7,0.5,1,1.1,1c1.2,0,1.6-0.9,1.6-1.8V29.8z"/>
			<path fill="#231F20" d="M78.7,32.3c-0.9,0-1.2-0.5-1.2-1.3V28h-0.9v-0.4h0.9v-1.3l0.5-0.1v1.4h1.4V28H78v2.9
				c0,0.5,0.1,0.9,0.8,0.9c0.2,0,0.5,0,0.7-0.1v0.4C79.2,32.2,78.9,32.3,78.7,32.3z"/>
			<path fill="#231F20" d="M84.1,30h-3.5c0,0.5,0.2,1,0.5,1.4c0.3,0.3,0.6,0.5,1.1,0.5c0.4,0,0.8-0.1,1-0.4c0.2-0.2,0.3-0.4,0.3-0.7
				h0.5c-0.1,0.4-0.3,0.7-0.5,1c-0.3,0.3-0.8,0.5-1.3,0.5c-0.7,0-1.1-0.3-1.5-0.7c-0.4-0.4-0.6-1-0.6-1.7c0-0.6,0.1-1.1,0.4-1.6
				c0.4-0.5,0.9-0.8,1.6-0.8c1.2,0,2,1.1,2,2.2C84.2,29.8,84.1,29.9,84.1,30z M82.2,27.9c-0.9,0-1.5,0.8-1.5,1.7h3
				C83.7,28.7,83.1,27.9,82.2,27.9z"/>
			<path fill="#231F20" d="M88.7,32.2l-0.1-0.8c-0.2,0.6-0.9,0.9-1.5,0.9c-0.5,0-0.9-0.2-1.2-0.4c-0.5-0.4-0.8-1.2-0.8-2
				c0-0.8,0.2-1.5,0.7-1.9c0.3-0.3,0.7-0.5,1.2-0.5c0.7,0,1.3,0.4,1.5,0.9v-2.8h0.5v6.6H88.7z M88,28.3c-0.2-0.2-0.5-0.4-1-0.4
				c-0.4,0-0.7,0.2-1,0.4c-0.4,0.4-0.5,1-0.5,1.6c0,0.7,0.2,1.3,0.6,1.6c0.2,0.2,0.5,0.3,0.9,0.3c0.4,0,0.7-0.1,0.9-0.4
				c0.4-0.4,0.6-1,0.6-1.6C88.6,29.2,88.5,28.7,88,28.3z"/>
			<path fill="#231F20" d="M95,32.3c-0.6,0-1.3-0.3-1.7-0.7c-0.7-0.7-0.8-1.7-0.8-2.7c0-0.9,0.1-2,0.8-2.7c0.4-0.4,1.1-0.7,1.7-0.7
				c1.3,0,2.2,0.9,2.3,2.1h-0.5C96.7,26.7,96,26,95,26c-0.6,0-1,0.2-1.4,0.6C93,27.2,93,28.2,93,28.9c0,0.8,0,1.7,0.6,2.3
				c0.4,0.4,0.8,0.6,1.4,0.6c1,0,1.7-0.7,1.8-1.6h0.5C97.2,31.4,96.2,32.3,95,32.3z"/>
			<path fill="#231F20" d="M101.5,31.8c-0.3,0.3-0.8,0.6-1.3,0.6c-0.6,0-1-0.2-1.3-0.6c-0.5-0.5-0.7-1.1-0.7-1.9
				c0-0.8,0.2-1.4,0.7-1.9c0.3-0.3,0.8-0.6,1.3-0.6c0.6,0,1,0.2,1.3,0.6c0.5,0.5,0.7,1.1,0.7,1.9C102.2,30.7,102,31.3,101.5,31.8z
				 M101.2,28.4c-0.2-0.2-0.6-0.4-1-0.4s-0.8,0.2-1,0.4c-0.4,0.4-0.5,1-0.5,1.6s0.1,1.1,0.5,1.6c0.2,0.2,0.6,0.4,1,0.4
				s0.8-0.2,1-0.4c0.4-0.4,0.5-1,0.5-1.6S101.6,28.8,101.2,28.4z"/>
			<path fill="#231F20" d="M109.4,32.2v-3c0-0.8-0.3-1.3-1.1-1.3c-0.3,0-0.6,0.1-0.8,0.3c-0.4,0.3-0.5,0.8-0.5,1.4v2.6h-0.5v-3
				c0-0.8-0.3-1.3-1.1-1.3c-0.3,0-0.6,0.1-0.8,0.3c-0.4,0.4-0.6,1-0.6,1.7v2.3h-0.5v-4.6h0.4l0.1,0.8c0.2-0.5,0.7-0.9,1.4-0.9
				c0.8,0,1.3,0.4,1.4,1c0.2-0.6,0.7-1,1.5-1c1.1,0,1.5,0.7,1.5,1.7v3H109.4z"/>
			<path fill="#231F20" d="M117.4,32.2v-3c0-0.8-0.3-1.3-1.1-1.3c-0.3,0-0.6,0.1-0.8,0.3c-0.4,0.3-0.5,0.8-0.5,1.4v2.6h-0.5v-3
				c0-0.8-0.3-1.3-1.1-1.3c-0.3,0-0.6,0.1-0.8,0.3c-0.4,0.4-0.5,1-0.5,1.7v2.3h-0.5v-4.6h0.4l0.1,0.8c0.2-0.5,0.7-0.9,1.4-0.9
				c0.8,0,1.3,0.4,1.4,1c0.2-0.6,0.7-1,1.5-1c1.1,0,1.5,0.7,1.5,1.7v3H117.4z"/>
			<path fill="#231F20" d="M122.8,32.2l-0.1-0.8c-0.3,0.6-0.9,1-1.6,1c-1.1,0-1.6-0.7-1.6-1.7v-3h0.5v3c0,0.8,0.3,1.3,1.2,1.3
				c1.1,0,1.5-1,1.5-2v-2.3h0.5v4.6H122.8z"/>
			<path fill="#231F20" d="M128.1,32.2v-3c0-0.8-0.3-1.3-1.2-1.3c-1.1,0-1.5,1-1.5,2v2.3H125v-4.6h0.4l0.1,0.8c0.3-0.6,0.9-1,1.5-1
				c1.1,0,1.6,0.7,1.6,1.7v3H128.1z"/>
			<path fill="#231F20" d="M130.3,26.3v-0.6h0.6v0.6H130.3z M130.4,32.2v-4.6h0.5v4.6H130.4z"/>
			<path fill="#231F20" d="M134.3,32.3c-0.6,0-1-0.2-1.3-0.5c-0.5-0.5-0.6-1.1-0.6-1.9c0-0.8,0.2-1.4,0.6-1.9
				c0.3-0.3,0.8-0.5,1.3-0.5c1,0,1.7,0.6,1.8,1.5h-0.5c-0.1-0.6-0.6-1.1-1.3-1.1c-0.4,0-0.8,0.1-1,0.4c-0.4,0.4-0.5,1-0.5,1.6
				s0.1,1.1,0.5,1.6c0.2,0.2,0.6,0.4,1,0.4c0.7,0,1.2-0.5,1.3-1.1h0.5C136,31.6,135.3,32.3,134.3,32.3z"/>
			<path fill="#231F20" d="M141,32.2c-0.6,0-0.7-0.4-0.7-0.9c-0.2,0.7-0.9,1-1.7,1c-0.9,0-1.6-0.5-1.6-1.4c0-0.8,0.6-1.3,1.5-1.4
				l1.7-0.1V29c0-0.8-0.5-1-1.2-1c-0.7,0-1.3,0.3-1.3,1h-0.5c0.1-0.9,0.8-1.4,1.8-1.4c0.6,0,1.3,0.2,1.6,0.8
				c0.1,0.3,0.1,0.6,0.1,0.9v2.1c0,0.3,0,0.5,0.4,0.5c0.1,0,0.1,0,0.1,0v0.4C141.1,32.2,141.1,32.2,141,32.2z M140.3,29.8l-1.6,0.1
				c-0.7,0-1.1,0.4-1.1,1c0,0.7,0.5,1,1.1,1c1.2,0,1.6-0.9,1.6-1.8V29.8z"/>
			<path fill="#231F20" d="M143.9,32.3c-0.9,0-1.2-0.5-1.2-1.3V28h-0.9v-0.4h0.9v-1.3l0.5-0.1v1.4h1.4V28h-1.4v2.9
				c0,0.5,0.1,0.9,0.8,0.9c0.2,0,0.5,0,0.7-0.1v0.4C144.4,32.2,144.2,32.3,143.9,32.3z"/>
			<path fill="#231F20" d="M145.9,26.3v-0.6h0.6v0.6H145.9z M145.9,32.2v-4.6h0.5v4.6H145.9z"/>
			<path fill="#231F20" d="M151.2,31.8c-0.3,0.3-0.8,0.6-1.3,0.6c-0.6,0-1-0.2-1.3-0.6c-0.5-0.5-0.7-1.1-0.7-1.9
				c0-0.8,0.2-1.4,0.7-1.9c0.3-0.3,0.8-0.6,1.3-0.6c0.6,0,1,0.2,1.3,0.6c0.5,0.5,0.7,1.1,0.7,1.9C151.9,30.7,151.7,31.3,151.2,31.8z
				 M150.9,28.4c-0.2-0.2-0.6-0.4-1-0.4c-0.4,0-0.8,0.2-1,0.4c-0.4,0.4-0.5,1-0.5,1.6s0.1,1.1,0.5,1.6c0.2,0.2,0.6,0.4,1,0.4
				c0.4,0,0.8-0.2,1-0.4c0.4-0.4,0.5-1,0.5-1.6S151.3,28.8,150.9,28.4z"/>
			<path fill="#231F20" d="M156.4,32.2v-3c0-0.8-0.3-1.3-1.2-1.3c-1.1,0-1.5,1-1.5,2v2.3h-0.5v-4.6h0.4l0.1,0.8c0.3-0.6,0.9-1,1.6-1
				c1.1,0,1.6,0.7,1.6,1.7v3H156.4z"/>
			<path fill="#231F20" d="M161.6,31.8c-0.3,0.4-0.9,0.6-1.5,0.6c-0.6,0-1.2-0.2-1.5-0.6c-0.3-0.3-0.4-0.5-0.4-0.9h0.5
				c0,0.3,0.1,0.5,0.3,0.7c0.3,0.3,0.6,0.4,1.1,0.4c0.5,0,0.9-0.1,1.1-0.3c0.2-0.2,0.2-0.3,0.2-0.6c0-0.4-0.3-0.8-0.8-0.8l-0.9-0.1
				c-0.4,0-0.8-0.2-1-0.5c-0.2-0.2-0.3-0.4-0.3-0.7c0-0.4,0.2-0.7,0.4-0.9c0.3-0.3,0.8-0.4,1.3-0.4c0.5,0,1.1,0.2,1.4,0.5
				c0.2,0.2,0.3,0.6,0.3,0.8h-0.5c0-0.1-0.1-0.4-0.2-0.5c-0.2-0.2-0.6-0.4-1-0.4c-0.4,0-0.6,0.1-0.8,0.2c-0.2,0.2-0.4,0.4-0.4,0.6
				c0,0.4,0.2,0.7,0.9,0.8l0.9,0.1c0.9,0.1,1.3,0.7,1.3,1.3C161.9,31.3,161.8,31.5,161.6,31.8z"/>
		</g>
		<g>
			<path fill="#231F20" d="M7.2,21.1V4.5H1.7V0.4h16v4.1h-5.5v16.6H7.2z"/>
			<path fill="#231F20" d="M130.9,21.1V4.5h-6.6V0.4h18.2v4.1h-6.6v16.6H130.9z"/>
			<path fill="#231F20" d="M23.7,18.3l-1.3,2.8h-4.9L27.4,0h0.4l9.9,21.1h-4.9l-1.3-2.8H23.7z M25.3,14.2h4.5L27.6,10L25.3,14.2z"/>
			<path fill="#231F20" d="M46.6,13.5v7.6h-5V0.4h7.6c2.1,0,3.8,0.6,5.1,1.7c1.3,1.2,1.9,2.8,1.9,4.9c0,1.9-0.5,3.3-1.6,4.3
				c-0.8,0.8-1.9,1.3-3.3,1.5l6,8.2h-5.4L46.6,13.5z M46.6,4.5v5h2c0.8,0,1.5-0.2,1.9-0.7c0.5-0.4,0.7-1.1,0.7-1.9
				c0-0.7-0.2-1.2-0.6-1.7c-0.5-0.5-1.2-0.8-2-0.8H46.6z"/>
			<path fill="#231F20" d="M78.6,2.7l-2.6,3.2c-0.8-0.6-1.6-1.1-2.4-1.4c-0.8-0.3-1.6-0.4-2.6-0.4c-1.9,0-3.4,0.6-4.5,1.8
				C65.5,7.1,65,8.7,65,10.7c0,2,0.5,3.7,1.6,4.9c1.1,1.2,2.5,1.8,4.2,1.8c1.2,0,2.2-0.2,3-0.7c0.9-0.6,1.5-1.4,1.8-2.6h-4.3V10H81
				c0,3.1-0.9,5.7-2.6,7.8c-2,2.4-4.7,3.6-8.2,3.6c-3.5,0-6.2-1.3-8.1-3.8c-1.5-2-2.2-4.3-2.2-7c0-2.7,0.7-5,2.2-7
				C64,1.3,66.7,0,70.2,0c1.7,0,3.3,0.2,4.6,0.7C76.2,1.1,77.5,1.8,78.6,2.7z"/>
			<path fill="#231F20" d="M98.6,8.6v4.1h-7.9V17h7.9v4.1H85.7V0.4h12.9v4.1h-7.9v4.2H98.6z"/>
			<path fill="#231F20" d="M116.6,10.5V0.4h4.1v21h-0.4l-12-10.8v10.4h-4.1V0h0.5L116.6,10.5z"/>
			<path fill="#231F20" d="M147.9,18.3l-1.3,2.8h-4.9L151.6,0h0.4l9.9,21.1H157l-1.3-2.8H147.9z M149.5,14.2h4.5l-2.2-4.2
				L149.5,14.2z"/>
		</g>
	</g>

</svg>
