<?xml version="1.0" encoding="utf-8"?>
<!-- Generator: Adobe Illustrator 18.1.1, SVG Export Plug-In . SVG Version: 6.00 Build 0)  -->
<svg version="1.1" xmlns="http://www.w3.org/2000/svg" xmlns:xlink="http://www.w3.org/1999/xlink" x="0px" y="0px"
	 viewBox="0 0 22.9 23.1" enable-background="new 0 0 22.9 23.1" xml:space="preserve">

<g>
	
	<g>
		<path fill="#808080" d="M18.5,0.4h-14C2,0.4,0,2.4,0,4.8v13.8C0,21,2,23,4.4,23h5.7v-8.1H7.6v-3.8h2.5V9.5c0-2.6,1.6-4,4-4
			c1.1,0,1.6,0.1,2.4,0.1v3h-1.5c-1.3,0-1.7,0.3-1.7,1.2v1.3h3L16,14.8h-2.6V23h5.1c2.5,0,4.4-2,4.4-4.4V4.8
			C22.9,2.4,20.9,0.4,18.5,0.4z"/>
	</g>
</g>

</svg>
