<?xml version="1.0" encoding="utf-8"?>
<!-- Generator: Adobe Illustrator 18.1.1, SVG Export Plug-In . SVG Version: 6.00 Build 0)  -->
<svg version="1.1" xmlns="http://www.w3.org/2000/svg" xmlns:xlink="http://www.w3.org/1999/xlink" x="0px" y="0px"
	 viewBox="0 0 152.5 24.2" enable-background="new 0 0 152.5 24.2" xml:space="preserve">


	<g>
		<g>
			<g>
				<path fill="#ACACAC" d="M35,20V7.4h-4.2V4.3h12.1v3.1h-4.2V20H35z"/>
				<path fill="#ACACAC" d="M129,20V7.4h-5V4.3h13.9v3.1h-5V20H129z"/>
				<path fill="#ACACAC" d="M47.5,17.8l-1,2.1h-3.7l7.5-16h0.3l7.5,16h-3.7l-1-2.1H47.5z M48.7,14.8h3.4l-1.7-3.2L48.7,14.8z"/>
				<path fill="#ACACAC" d="M64.9,14.2V20h-3.8V4.3h5.8c1.6,0,2.9,0.4,3.9,1.3c1,0.9,1.4,2.1,1.4,3.7c0,1.4-0.4,2.5-1.2,3.3
					c-0.6,0.6-1.5,1-2.5,1.1l4.6,6.2H69L64.9,14.2z M64.9,7.4v3.8h1.5c0.6,0,1.1-0.2,1.5-0.5c0.4-0.3,0.5-0.8,0.5-1.4
					c0-0.5-0.2-0.9-0.5-1.3c-0.4-0.4-0.9-0.6-1.5-0.6H64.9z"/>
				<path fill="#ACACAC" d="M89.2,6l-1.9,2.4c-0.6-0.5-1.2-0.8-1.8-1c-0.6-0.2-1.2-0.3-2-0.3c-1.4,0-2.5,0.5-3.4,1.4
					c-0.8,0.9-1.3,2.2-1.3,3.7c0,1.6,0.4,2.8,1.2,3.7c0.8,0.9,1.9,1.4,3.2,1.4c0.9,0,1.7-0.2,2.3-0.6c0.7-0.4,1.2-1.1,1.3-2h-3.3
					v-3.1h7.4c0,2.3-0.7,4.3-2,5.9c-1.5,1.8-3.6,2.8-6.2,2.8c-2.7,0-4.7-1-6.1-2.9c-1.1-1.5-1.7-3.3-1.7-5.3c0-2,0.6-3.8,1.7-5.3
					c1.4-1.9,3.4-2.9,6.1-2.9c1.3,0,2.5,0.2,3.5,0.5C87.4,4.8,88.4,5.3,89.2,6z"/>
				<path fill="#ACACAC" d="M104.4,10.5v3.1h-6v3.3h6V20h-9.8V4.3h9.8v3.1h-6v3.2H104.4z"/>
				<path fill="#ACACAC" d="M118.1,11.9V4.3h3.1v16h-0.3l-9.1-8.2V20h-3.1v-16h0.4L118.1,11.9z"/>
				<g>
					<g>
						<path fill="#ACACAC" d="M141.9,17.8l-1,2.1h-3.7l7.5-16h0.3l7.5,16h-3.7l-1-2.1H141.9z M143.1,14.8h3.4l-1.7-3.2L143.1,14.8z"
							/>
					</g>
				</g>
			</g>
			<g>
				<g>
					<path fill="#ACACAC" d="M23.4,7c-2.3-6.7-9.7-7-9.7-7c-0.6,0-0.6,0.6-0.6,0.6v4.2c1.7,0.2,1.9-1.3,1.9-1.3l0.1-1.4
						c1,0.2,1.8,0.5,2.5,0.9c-0.9,0.1-1.5,0.8-1.5,1.7c0,1,0.8,1.7,1.7,1.7c1,0,1.7-0.8,1.7-1.7c0-0.2,0-0.3-0.1-0.5
						c1.2,1.1,1.7,2.1,1.7,2.1l-1.2,0.4c-1.2,0.3-1.2,1-1.2,1l0,1.4L23,7.7C23.6,7.5,23.4,7,23.4,7z"/>
				</g>
				<g>
					<path fill="#ACACAC" d="M24.3,9.6c-0.2-0.6-0.8-0.4-0.8-0.4l-4,1.3c0.3,1.7,1.8,1.4,1.8,1.4l1.4-0.3c0.1,1,0,1.8-0.1,2.6
						c-0.4-0.8-1.2-1.2-2.1-0.9c-0.9,0.3-1.4,1.3-1.1,2.2c0.3,0.9,1.3,1.4,2.2,1.1c0.2,0,0.3-0.1,0.4-0.2c-0.7,1.5-1.5,2.2-1.5,2.2
						l-0.7-1c-0.7-1.1-1.3-0.9-1.3-0.9l-1.4,0.4l2.7,3.6c0.3,0.5,0.8,0.2,0.8,0.2C26.2,16.7,24.3,9.6,24.3,9.6z"/>
				</g>
				<g>
					<path fill="#ACACAC" d="M18.5,21.6l-2.4-3.4c-1.5,0.9-0.8,2.2-0.8,2.2l0.7,1.2c-0.9,0.4-1.7,0.6-2.5,0.7
						c0.6-0.6,0.8-1.5,0.2-2.3c-0.6-0.8-1.6-1-2.4-0.4c-0.8,0.6-1,1.6-0.4,2.4c0.1,0.1,0.2,0.2,0.3,0.3c-1.6-0.2-2.6-0.8-2.6-0.8
						l0.8-1c0.8-1,0.4-1.5,0.4-1.5L9,17.9l-2.6,3.7c-0.4,0.5,0.1,0.8,0.1,0.8c5.7,4.1,11.9,0.1,11.9,0.1
						C18.8,22.1,18.5,21.6,18.5,21.6z"/>
				</g>
				<g>
					<path fill="#ACACAC" d="M5.1,17.1l-0.9,1.1C3.5,17.4,3,16.7,2.7,16c0.7,0.4,1.7,0.3,2.2-0.4c0.6-0.8,0.4-1.8-0.3-2.4
						c-0.8-0.6-1.8-0.4-2.4,0.3C2.1,13.6,2,13.8,2,13.9c-0.3-1.6,0-2.7,0-2.7l1.2,0.4c1.2,0.5,1.6-0.1,1.6-0.1l0.9-1.2L1.3,9
						C0.7,8.8,0.5,9.3,0.5,9.3C-1.7,16,4,20.7,4,20.7c0.5,0.4,0.9-0.1,0.9-0.1l2.5-3.3C6.1,16.1,5.1,17.1,5.1,17.1z"/>
				</g>
				<g>
					<path fill="#ACACAC" d="M11.6,0.7c0-0.6-0.5-0.6-0.5-0.6c-7,0-9.7,6.9-9.7,6.9C1.2,7.5,1.7,7.7,1.7,7.7l4,1.4
						c0.7-1.6-0.6-2.2-0.6-2.2L3.8,6.3c0.5-0.8,1.1-1.5,1.6-2c-0.2,0.8,0.3,1.7,1.1,2c0.9,0.3,1.9-0.2,2.2-1.1
						C9.1,4.2,8.6,3.3,7.7,3C7.5,2.9,7.4,2.9,7.2,2.9C8.7,2.1,9.8,2,9.8,2l0,1.3c-0.1,1.3,0.6,1.5,0.6,1.5l1.4,0.4L11.6,0.7z"/>
				</g>
			</g>
		</g>
	</g>

</svg>
