<?xml version="1.0" encoding="utf-8"?>
<!-- Generator: Adobe Illustrator 18.1.1, SVG Export Plug-In . SVG Version: 6.00 Build 0)  -->
<svg version="1.1" xmlns="http://www.w3.org/2000/svg" xmlns:xlink="http://www.w3.org/1999/xlink" x="0px" y="0px"
	 viewBox="0 0 31.6 31" enable-background="new 0 0 31.6 31" xml:space="preserve">

					<g>
						<path fill="#096EAF" d="M31.6,15.5c0,3.1,0,6.3,0,9.4c0,3-2,5.4-5,6C26.2,31,25.8,31,25.4,31c-6.4,0-12.8,0-19.2,0
							c-3.1,0-5.7-2.2-6.2-5.2c0-0.3,0-0.6,0-0.9c0-6.2,0-12.5,0-18.7c0-3,1.9-5.3,4.7-6C5.2,0.1,5.8,0,6.3,0c6.3,0,12.7,0,19,0
							c3.1,0,5.5,1.9,6.2,4.8c0.1,0.3,0.1,0.7,0.1,1.1C31.6,9.1,31.6,12.3,31.6,15.5L31.6,15.5z M3.1,12.4c0,0.2,0,0.3,0,0.4
							c0,2.1,0,4.2,0,6.4c0,1.9,0,3.9,0,5.8c0,1.8,1.3,3,3.1,3.1c6.4,0,12.8,0,19.2,0c0.6,0,1.2-0.1,1.7-0.5
							c0.9-0.6,1.4-1.5,1.4-2.6c0-4,0-8.1,0-12.1c0-0.1,0-0.2,0-0.4c-1.6,0-3.1,0-4.6,0c1.2,3.9,0.5,7.3-2.8,9.8
							c-2.9,2.2-6.2,2.5-9.3,0.7c-4.2-2.4-5.3-6.1-4-10.6C6.2,12.4,4.7,12.4,3.1,12.4z M21.3,15.5c0-3.1-2.5-5.5-5.7-5.4
							c-3,0-5.5,2.5-5.4,5.5c0,3,2.6,5.4,5.7,5.3C18.9,20.9,21.4,18.4,21.3,15.5z M22.6,8.8c1.8,0,3.5,0,5.3,0c0-1.8,0-3.5,0-5.2
							c-1.8,0-3.5,0-5.3,0C22.6,5.4,22.6,7.1,22.6,8.8z"/>
					</g>

</svg>
