<?xml version="1.0" encoding="utf-8"?>
<!-- Generator: Adobe Illustrator 18.1.1, SVG Export Plug-In . SVG Version: 6.00 Build 0)  -->
<svg version="1.1" xmlns="http://www.w3.org/2000/svg" xmlns:xlink="http://www.w3.org/1999/xlink" x="0px" y="0px"
	 viewBox="0 0 23.1 23.1" enable-background="new 0 0 23.1 23.1" xml:space="preserve">


					<g>
						<path fill="#808080" d="M23.1,4.6C23.1,2.2,21,0,18.4,0H4.1C1.5,0,0,2.2,0,4.6V18c0,2.4,1.5,5.1,4.1,5.1h14.3
							c2.6,0,4.7-2.7,4.7-5.1V4.6z M7.2,18.8H3.6V8.7h3.6V18.8z M5.5,7c-1,0-1.8-0.7-1.8-1.7c0-0.9,0.8-1.7,1.8-1.7s1.8,0.7,1.8,1.7
							C7.3,6.2,6.5,7,5.5,7z M19.5,18.8h-3.6v-6.6c0-0.7-0.1-1.5-0.6-1.8c-0.4-0.3-1.5-0.6-2.3,0.4c-0.4,0.5-0.7,1.4-0.7,2.6v5.5
							H9.4V8.7h2.4l0.1,0.9c0.3-0.4,0.7-1.6,3-1.8c1.3-0.1,2.8,0.3,3.5,1c1.1,1,1.2,2.1,1.2,3.3V18.8z"/>
					</g>

</svg>
