<?xml version="1.0" encoding="utf-8"?>
<!-- Generator: Adobe Illustrator 18.1.1, SVG Export Plug-In . SVG Version: 6.00 Build 0)  -->
<svg version="1.1" xmlns="http://www.w3.org/2000/svg" xmlns:xlink="http://www.w3.org/1999/xlink" x="0px" y="0px"
	 viewBox="0 0 1134.7 235.8" enable-background="new 0 0 1134.7 235.8" xml:space="preserve">
<g >
		<defs>
			<rect id="SVGID_195_" x="0" y="0" width="1134.7" height="235.8"/>
		</defs>
		<clipPath id="SVGID_5_">
			<use xlink:href="#SVGID_195_"  overflow="visible"/>
		</clipPath>
		
			<line clip-path="url(#SVGID_5_)" fill="none" stroke="#ACACAC" stroke-miterlimit="10" x1="518.4" y1="-9.5" x2="885.3" y2="307.3"/>
		
			<line clip-path="url(#SVGID_5_)" fill="none" stroke="#ACACAC" stroke-miterlimit="10" x1="514.4" y1="-9.5" x2="881.3" y2="307.3"/>
		
			<line clip-path="url(#SVGID_5_)" fill="none" stroke="#ACACAC" stroke-miterlimit="10" x1="510.4" y1="-9.5" x2="877.3" y2="307.3"/>
		
			<line clip-path="url(#SVGID_5_)" fill="none" stroke="#ACACAC" stroke-miterlimit="10" x1="506.4" y1="-9.5" x2="873.3" y2="307.3"/>
		
			<line clip-path="url(#SVGID_5_)" fill="none" stroke="#ACACAC" stroke-miterlimit="10" x1="502.4" y1="-9.5" x2="869.3" y2="307.3"/>
		
			<line clip-path="url(#SVGID_5_)" fill="none" stroke="#ACACAC" stroke-miterlimit="10" x1="498.4" y1="-9.5" x2="865.3" y2="307.3"/>
		
			<line clip-path="url(#SVGID_5_)" fill="none" stroke="#ACACAC" stroke-miterlimit="10" x1="494.4" y1="-9.5" x2="861.3" y2="307.3"/>
		
			<line clip-path="url(#SVGID_5_)" fill="none" stroke="#ACACAC" stroke-miterlimit="10" x1="490.4" y1="-9.5" x2="857.3" y2="307.3"/>
		
			<line clip-path="url(#SVGID_5_)" fill="none" stroke="#ACACAC" stroke-miterlimit="10" x1="486.4" y1="-9.5" x2="853.3" y2="307.3"/>
		
			<line clip-path="url(#SVGID_5_)" fill="none" stroke="#ACACAC" stroke-miterlimit="10" x1="482.4" y1="-9.5" x2="849.3" y2="307.3"/>
		
			<line clip-path="url(#SVGID_5_)" fill="none" stroke="#ACACAC" stroke-miterlimit="10" x1="478.4" y1="-9.5" x2="845.3" y2="307.3"/>
		
			<line clip-path="url(#SVGID_5_)" fill="none" stroke="#ACACAC" stroke-miterlimit="10" x1="474.4" y1="-9.5" x2="841.3" y2="307.3"/>
		
			<line clip-path="url(#SVGID_5_)" fill="none" stroke="#ACACAC" stroke-miterlimit="10" x1="470.4" y1="-9.5" x2="837.3" y2="307.3"/>
		
			<line clip-path="url(#SVGID_5_)" fill="none" stroke="#ACACAC" stroke-miterlimit="10" x1="466.4" y1="-9.5" x2="833.3" y2="307.3"/>
		
			<line clip-path="url(#SVGID_5_)" fill="none" stroke="#ACACAC" stroke-miterlimit="10" x1="462.4" y1="-9.5" x2="829.3" y2="307.3"/>
		
			<line clip-path="url(#SVGID_5_)" fill="none" stroke="#ACACAC" stroke-miterlimit="10" x1="458.4" y1="-9.5" x2="825.3" y2="307.3"/>
		
			<line clip-path="url(#SVGID_5_)" fill="none" stroke="#ACACAC" stroke-miterlimit="10" x1="454.4" y1="-9.5" x2="821.3" y2="307.3"/>
		
			<line clip-path="url(#SVGID_5_)" fill="none" stroke="#ACACAC" stroke-miterlimit="10" x1="450.4" y1="-9.5" x2="817.3" y2="307.3"/>
		
			<line clip-path="url(#SVGID_5_)" fill="none" stroke="#ACACAC" stroke-miterlimit="10" x1="446.4" y1="-9.5" x2="813.3" y2="307.3"/>
		
			<line clip-path="url(#SVGID_5_)" fill="none" stroke="#ACACAC" stroke-miterlimit="10" x1="442.4" y1="-9.5" x2="809.3" y2="307.3"/>
		
			<line clip-path="url(#SVGID_5_)" fill="none" stroke="#ACACAC" stroke-miterlimit="10" x1="438.4" y1="-9.5" x2="805.3" y2="307.3"/>
		
			<line clip-path="url(#SVGID_5_)" fill="none" stroke="#ACACAC" stroke-miterlimit="10" x1="434.4" y1="-9.5" x2="801.3" y2="307.3"/>
		
			<line clip-path="url(#SVGID_5_)" fill="none" stroke="#ACACAC" stroke-miterlimit="10" x1="430.4" y1="-9.5" x2="797.3" y2="307.3"/>
		
			<line clip-path="url(#SVGID_5_)" fill="none" stroke="#ACACAC" stroke-miterlimit="10" x1="426.4" y1="-9.5" x2="793.3" y2="307.3"/>
		
			<line clip-path="url(#SVGID_5_)" fill="none" stroke="#ACACAC" stroke-miterlimit="10" x1="422.4" y1="-9.5" x2="789.3" y2="307.3"/>
		
			<line clip-path="url(#SVGID_5_)" fill="none" stroke="#ACACAC" stroke-miterlimit="10" x1="418.4" y1="-9.5" x2="785.3" y2="307.3"/>
		
			<line clip-path="url(#SVGID_5_)" fill="none" stroke="#ACACAC" stroke-miterlimit="10" x1="414.4" y1="-9.5" x2="781.3" y2="307.3"/>
		
			<line clip-path="url(#SVGID_5_)" fill="none" stroke="#ACACAC" stroke-miterlimit="10" x1="410.4" y1="-9.5" x2="777.3" y2="307.3"/>
		
			<line clip-path="url(#SVGID_5_)" fill="none" stroke="#ACACAC" stroke-miterlimit="10" x1="406.4" y1="-9.5" x2="773.3" y2="307.3"/>
		
			<line clip-path="url(#SVGID_5_)" fill="none" stroke="#ACACAC" stroke-miterlimit="10" x1="402.4" y1="-9.5" x2="769.3" y2="307.3"/>
		
			<line clip-path="url(#SVGID_5_)" fill="none" stroke="#ACACAC" stroke-miterlimit="10" x1="398.4" y1="-9.5" x2="765.3" y2="307.3"/>
		
			<line clip-path="url(#SVGID_5_)" fill="none" stroke="#ACACAC" stroke-miterlimit="10" x1="394.4" y1="-9.5" x2="761.3" y2="307.3"/>
		
			<line clip-path="url(#SVGID_5_)" fill="none" stroke="#ACACAC" stroke-miterlimit="10" x1="390.4" y1="-9.5" x2="757.3" y2="307.3"/>
		
			<line clip-path="url(#SVGID_5_)" fill="none" stroke="#ACACAC" stroke-miterlimit="10" x1="386.4" y1="-9.5" x2="753.3" y2="307.3"/>
		
			<line clip-path="url(#SVGID_5_)" fill="none" stroke="#ACACAC" stroke-miterlimit="10" x1="382.4" y1="-9.5" x2="749.3" y2="307.3"/>
		
			<line clip-path="url(#SVGID_5_)" fill="none" stroke="#ACACAC" stroke-miterlimit="10" x1="378.4" y1="-9.5" x2="745.3" y2="307.3"/>
		
			<line clip-path="url(#SVGID_5_)" fill="none" stroke="#ACACAC" stroke-miterlimit="10" x1="374.4" y1="-9.5" x2="741.3" y2="307.3"/>
		
			<line clip-path="url(#SVGID_5_)" fill="none" stroke="#ACACAC" stroke-miterlimit="10" x1="370.4" y1="-9.5" x2="737.3" y2="307.3"/>
		
			<line clip-path="url(#SVGID_5_)" fill="none" stroke="#ACACAC" stroke-miterlimit="10" x1="366.4" y1="-9.5" x2="733.3" y2="307.3"/>
		
			<line clip-path="url(#SVGID_5_)" fill="none" stroke="#ACACAC" stroke-miterlimit="10" x1="362.4" y1="-9.5" x2="729.3" y2="307.3"/>
		
			<line clip-path="url(#SVGID_5_)" fill="none" stroke="#ACACAC" stroke-miterlimit="10" x1="358.4" y1="-9.5" x2="725.3" y2="307.3"/>
		
			<line clip-path="url(#SVGID_5_)" fill="none" stroke="#ACACAC" stroke-miterlimit="10" x1="354.4" y1="-9.5" x2="721.3" y2="307.3"/>
		
			<line clip-path="url(#SVGID_5_)" fill="none" stroke="#ACACAC" stroke-miterlimit="10" x1="350.4" y1="-9.5" x2="717.3" y2="307.3"/>
		
			<line clip-path="url(#SVGID_5_)" fill="none" stroke="#ACACAC" stroke-miterlimit="10" x1="346.4" y1="-9.5" x2="713.3" y2="307.3"/>
		
			<line clip-path="url(#SVGID_5_)" fill="none" stroke="#ACACAC" stroke-miterlimit="10" x1="342.4" y1="-9.5" x2="709.3" y2="307.3"/>
		
			<line clip-path="url(#SVGID_5_)" fill="none" stroke="#ACACAC" stroke-miterlimit="10" x1="338.4" y1="-9.5" x2="705.3" y2="307.3"/>
		
			<line clip-path="url(#SVGID_5_)" fill="none" stroke="#ACACAC" stroke-miterlimit="10" x1="334.4" y1="-9.5" x2="701.3" y2="307.3"/>
		
			<line clip-path="url(#SVGID_5_)" fill="none" stroke="#ACACAC" stroke-miterlimit="10" x1="330.4" y1="-9.5" x2="697.3" y2="307.3"/>
		
			<line clip-path="url(#SVGID_5_)" fill="none" stroke="#ACACAC" stroke-miterlimit="10" x1="326.4" y1="-9.5" x2="693.3" y2="307.3"/>
		
			<line clip-path="url(#SVGID_5_)" fill="none" stroke="#ACACAC" stroke-miterlimit="10" x1="322.4" y1="-9.5" x2="689.3" y2="307.3"/>
		
			<line clip-path="url(#SVGID_5_)" fill="none" stroke="#ACACAC" stroke-miterlimit="10" x1="318.4" y1="-9.5" x2="685.3" y2="307.3"/>
		
			<line clip-path="url(#SVGID_5_)" fill="none" stroke="#ACACAC" stroke-miterlimit="10" x1="314.4" y1="-9.5" x2="681.3" y2="307.3"/>
		
			<line clip-path="url(#SVGID_5_)" fill="none" stroke="#ACACAC" stroke-miterlimit="10" x1="310.4" y1="-9.5" x2="677.3" y2="307.3"/>
		
			<line clip-path="url(#SVGID_5_)" fill="none" stroke="#ACACAC" stroke-miterlimit="10" x1="306.4" y1="-9.5" x2="673.3" y2="307.3"/>
		
			<line clip-path="url(#SVGID_5_)" fill="none" stroke="#ACACAC" stroke-miterlimit="10" x1="302.4" y1="-9.5" x2="669.3" y2="307.3"/>
		
			<line clip-path="url(#SVGID_5_)" fill="none" stroke="#ACACAC" stroke-miterlimit="10" x1="298.4" y1="-9.5" x2="665.3" y2="307.3"/>
		
			<line clip-path="url(#SVGID_5_)" fill="none" stroke="#ACACAC" stroke-miterlimit="10" x1="294.4" y1="-9.5" x2="661.3" y2="307.3"/>
		
			<line clip-path="url(#SVGID_5_)" fill="none" stroke="#ACACAC" stroke-miterlimit="10" x1="290.4" y1="-9.5" x2="657.3" y2="307.3"/>
		
			<line clip-path="url(#SVGID_5_)" fill="none" stroke="#ACACAC" stroke-miterlimit="10" x1="286.4" y1="-9.5" x2="653.3" y2="307.3"/>
		
			<line clip-path="url(#SVGID_5_)" fill="none" stroke="#ACACAC" stroke-miterlimit="10" x1="282.4" y1="-9.5" x2="649.3" y2="307.3"/>
		
			<line clip-path="url(#SVGID_5_)" fill="none" stroke="#ACACAC" stroke-miterlimit="10" x1="278.4" y1="-9.5" x2="645.3" y2="307.3"/>
		
			<line clip-path="url(#SVGID_5_)" fill="none" stroke="#ACACAC" stroke-miterlimit="10" x1="274.4" y1="-9.5" x2="641.3" y2="307.3"/>
		
			<line clip-path="url(#SVGID_5_)" fill="none" stroke="#ACACAC" stroke-miterlimit="10" x1="270.4" y1="-9.5" x2="637.3" y2="307.3"/>
		
			<line clip-path="url(#SVGID_5_)" fill="none" stroke="#ACACAC" stroke-miterlimit="10" x1="266.4" y1="-9.5" x2="633.3" y2="307.3"/>
		
			<line clip-path="url(#SVGID_5_)" fill="none" stroke="#ACACAC" stroke-miterlimit="10" x1="262.4" y1="-9.5" x2="629.3" y2="307.3"/>
		
			<line clip-path="url(#SVGID_5_)" fill="none" stroke="#ACACAC" stroke-miterlimit="10" x1="258.4" y1="-9.5" x2="625.3" y2="307.3"/>
		
			<line clip-path="url(#SVGID_5_)" fill="none" stroke="#ACACAC" stroke-miterlimit="10" x1="254.4" y1="-9.5" x2="621.3" y2="307.3"/>
		
			<line clip-path="url(#SVGID_5_)" fill="none" stroke="#ACACAC" stroke-miterlimit="10" x1="250.4" y1="-9.5" x2="617.3" y2="307.3"/>
		
			<line clip-path="url(#SVGID_5_)" fill="none" stroke="#ACACAC" stroke-miterlimit="10" x1="246.4" y1="-9.5" x2="613.3" y2="307.3"/>
		
			<line clip-path="url(#SVGID_5_)" fill="none" stroke="#ACACAC" stroke-miterlimit="10" x1="242.4" y1="-9.5" x2="609.3" y2="307.3"/>
		
			<line clip-path="url(#SVGID_5_)" fill="none" stroke="#ACACAC" stroke-miterlimit="10" x1="238.4" y1="-9.5" x2="605.3" y2="307.3"/>
		
			<line clip-path="url(#SVGID_5_)" fill="none" stroke="#ACACAC" stroke-miterlimit="10" x1="234.4" y1="-9.5" x2="601.3" y2="307.3"/>
		
			<line clip-path="url(#SVGID_5_)" fill="none" stroke="#ACACAC" stroke-miterlimit="10" x1="230.4" y1="-9.5" x2="597.3" y2="307.3"/>
		
			<line clip-path="url(#SVGID_5_)" fill="none" stroke="#ACACAC" stroke-miterlimit="10" x1="226.4" y1="-9.5" x2="593.3" y2="307.3"/>
		
			<line clip-path="url(#SVGID_5_)" fill="none" stroke="#ACACAC" stroke-miterlimit="10" x1="222.4" y1="-9.5" x2="589.3" y2="307.3"/>
		
			<line clip-path="url(#SVGID_5_)" fill="none" stroke="#ACACAC" stroke-miterlimit="10" x1="218.4" y1="-9.5" x2="585.3" y2="307.3"/>
		
			<line clip-path="url(#SVGID_5_)" fill="none" stroke="#ACACAC" stroke-miterlimit="10" x1="214.4" y1="-9.5" x2="581.3" y2="307.3"/>
		
			<line clip-path="url(#SVGID_5_)" fill="none" stroke="#ACACAC" stroke-miterlimit="10" x1="210.4" y1="-9.5" x2="577.3" y2="307.3"/>
		
			<line clip-path="url(#SVGID_5_)" fill="none" stroke="#ACACAC" stroke-miterlimit="10" x1="206.4" y1="-9.5" x2="573.3" y2="307.3"/>
		
			<line clip-path="url(#SVGID_5_)" fill="none" stroke="#ACACAC" stroke-miterlimit="10" x1="202.4" y1="-9.5" x2="569.3" y2="307.3"/>
		
			<line clip-path="url(#SVGID_5_)" fill="none" stroke="#ACACAC" stroke-miterlimit="10" x1="198.4" y1="-9.5" x2="565.3" y2="307.3"/>
		
			<line clip-path="url(#SVGID_5_)" fill="none" stroke="#ACACAC" stroke-miterlimit="10" x1="194.4" y1="-9.5" x2="561.3" y2="307.3"/>
		
			<line clip-path="url(#SVGID_5_)" fill="none" stroke="#ACACAC" stroke-miterlimit="10" x1="190.4" y1="-9.5" x2="557.3" y2="307.3"/>
		
			<line clip-path="url(#SVGID_5_)" fill="none" stroke="#ACACAC" stroke-miterlimit="10" x1="186.4" y1="-9.5" x2="553.3" y2="307.3"/>
		
			<line clip-path="url(#SVGID_5_)" fill="none" stroke="#ACACAC" stroke-miterlimit="10" x1="182.4" y1="-9.5" x2="549.3" y2="307.3"/>
		
			<line clip-path="url(#SVGID_5_)" fill="none" stroke="#ACACAC" stroke-miterlimit="10" x1="178.4" y1="-9.5" x2="545.3" y2="307.3"/>
		
			<line clip-path="url(#SVGID_5_)" fill="none" stroke="#ACACAC" stroke-miterlimit="10" x1="174.4" y1="-9.5" x2="541.3" y2="307.3"/>
		
			<line clip-path="url(#SVGID_5_)" fill="none" stroke="#ACACAC" stroke-miterlimit="10" x1="170.4" y1="-9.5" x2="537.3" y2="307.3"/>
		
			<line clip-path="url(#SVGID_5_)" fill="none" stroke="#ACACAC" stroke-miterlimit="10" x1="166.4" y1="-9.5" x2="533.3" y2="307.3"/>
		
			<line clip-path="url(#SVGID_5_)" fill="none" stroke="#ACACAC" stroke-miterlimit="10" x1="162.4" y1="-9.5" x2="529.3" y2="307.3"/>
		
			<line clip-path="url(#SVGID_5_)" fill="none" stroke="#ACACAC" stroke-miterlimit="10" x1="158.4" y1="-9.5" x2="525.3" y2="307.3"/>
		
			<line clip-path="url(#SVGID_5_)" fill="none" stroke="#ACACAC" stroke-miterlimit="10" x1="154.4" y1="-9.5" x2="521.3" y2="307.3"/>
		
			<line clip-path="url(#SVGID_5_)" fill="none" stroke="#ACACAC" stroke-miterlimit="10" x1="150.4" y1="-9.5" x2="517.3" y2="307.3"/>
		
			<line clip-path="url(#SVGID_5_)" fill="none" stroke="#ACACAC" stroke-miterlimit="10" x1="146.4" y1="-9.5" x2="513.3" y2="307.3"/>
		
			<line clip-path="url(#SVGID_5_)" fill="none" stroke="#ACACAC" stroke-miterlimit="10" x1="142.4" y1="-9.5" x2="509.3" y2="307.3"/>
		
			<line clip-path="url(#SVGID_5_)" fill="none" stroke="#ACACAC" stroke-miterlimit="10" x1="138.4" y1="-9.5" x2="505.3" y2="307.3"/>
		
			<line clip-path="url(#SVGID_5_)" fill="none" stroke="#ACACAC" stroke-miterlimit="10" x1="134.4" y1="-9.5" x2="501.3" y2="307.3"/>
		
			<line clip-path="url(#SVGID_5_)" fill="none" stroke="#ACACAC" stroke-miterlimit="10" x1="130.4" y1="-9.5" x2="497.3" y2="307.3"/>
		
			<line clip-path="url(#SVGID_5_)" fill="none" stroke="#ACACAC" stroke-miterlimit="10" x1="126.4" y1="-9.5" x2="493.3" y2="307.3"/>
		
			<line clip-path="url(#SVGID_5_)" fill="none" stroke="#ACACAC" stroke-miterlimit="10" x1="122.4" y1="-9.5" x2="489.3" y2="307.3"/>
		
			<line clip-path="url(#SVGID_5_)" fill="none" stroke="#ACACAC" stroke-miterlimit="10" x1="118.4" y1="-9.5" x2="485.3" y2="307.3"/>
		
			<line clip-path="url(#SVGID_5_)" fill="none" stroke="#ACACAC" stroke-miterlimit="10" x1="114.4" y1="-9.5" x2="481.3" y2="307.3"/>
		
			<line clip-path="url(#SVGID_5_)" fill="none" stroke="#ACACAC" stroke-miterlimit="10" x1="110.4" y1="-9.5" x2="477.3" y2="307.3"/>
		
			<line clip-path="url(#SVGID_5_)" fill="none" stroke="#ACACAC" stroke-miterlimit="10" x1="106.4" y1="-9.5" x2="473.3" y2="307.3"/>
		
			<line clip-path="url(#SVGID_5_)" fill="none" stroke="#ACACAC" stroke-miterlimit="10" x1="102.4" y1="-9.5" x2="469.3" y2="307.3"/>
		
			<line clip-path="url(#SVGID_5_)" fill="none" stroke="#ACACAC" stroke-miterlimit="10" x1="98.4" y1="-9.5" x2="465.3" y2="307.3"/>
		
			<line clip-path="url(#SVGID_5_)" fill="none" stroke="#ACACAC" stroke-miterlimit="10" x1="94.4" y1="-9.5" x2="461.3" y2="307.3"/>
		
			<line clip-path="url(#SVGID_5_)" fill="none" stroke="#ACACAC" stroke-miterlimit="10" x1="90.4" y1="-9.5" x2="457.3" y2="307.3"/>
		
			<line clip-path="url(#SVGID_5_)" fill="none" stroke="#ACACAC" stroke-miterlimit="10" x1="86.4" y1="-9.5" x2="453.3" y2="307.3"/>
		
			<line clip-path="url(#SVGID_5_)" fill="none" stroke="#ACACAC" stroke-miterlimit="10" x1="82.4" y1="-9.5" x2="449.3" y2="307.3"/>
		
			<line clip-path="url(#SVGID_5_)" fill="none" stroke="#ACACAC" stroke-miterlimit="10" x1="78.4" y1="-9.5" x2="445.3" y2="307.3"/>
		
			<line clip-path="url(#SVGID_5_)" fill="none" stroke="#ACACAC" stroke-miterlimit="10" x1="74.4" y1="-9.5" x2="441.3" y2="307.3"/>
		
			<line clip-path="url(#SVGID_5_)" fill="none" stroke="#ACACAC" stroke-miterlimit="10" x1="70.4" y1="-9.5" x2="437.3" y2="307.3"/>
		
			<line clip-path="url(#SVGID_5_)" fill="none" stroke="#ACACAC" stroke-miterlimit="10" x1="66.4" y1="-9.5" x2="433.3" y2="307.3"/>
		
			<line clip-path="url(#SVGID_5_)" fill="none" stroke="#ACACAC" stroke-miterlimit="10" x1="62.4" y1="-9.5" x2="429.3" y2="307.3"/>
		
			<line clip-path="url(#SVGID_5_)" fill="none" stroke="#ACACAC" stroke-miterlimit="10" x1="58.4" y1="-9.5" x2="425.3" y2="307.3"/>
		
			<line clip-path="url(#SVGID_5_)" fill="none" stroke="#ACACAC" stroke-miterlimit="10" x1="54.4" y1="-9.5" x2="421.3" y2="307.3"/>
		
			<line clip-path="url(#SVGID_5_)" fill="none" stroke="#ACACAC" stroke-miterlimit="10" x1="50.4" y1="-9.5" x2="417.3" y2="307.3"/>
		
			<line clip-path="url(#SVGID_5_)" fill="none" stroke="#ACACAC" stroke-miterlimit="10" x1="46.4" y1="-9.5" x2="413.3" y2="307.3"/>
		
			<line clip-path="url(#SVGID_5_)" fill="none" stroke="#ACACAC" stroke-miterlimit="10" x1="42.4" y1="-9.5" x2="409.3" y2="307.3"/>
		
			<line clip-path="url(#SVGID_5_)" fill="none" stroke="#ACACAC" stroke-miterlimit="10" x1="38.4" y1="-9.5" x2="405.3" y2="307.3"/>
		
			<line clip-path="url(#SVGID_5_)" fill="none" stroke="#ACACAC" stroke-miterlimit="10" x1="34.4" y1="-9.5" x2="401.3" y2="307.3"/>
		
			<line clip-path="url(#SVGID_5_)" fill="none" stroke="#ACACAC" stroke-miterlimit="10" x1="30.4" y1="-9.5" x2="397.3" y2="307.3"/>
		
			<line clip-path="url(#SVGID_5_)" fill="none" stroke="#ACACAC" stroke-miterlimit="10" x1="26.4" y1="-9.5" x2="393.3" y2="307.3"/>
		
			<line clip-path="url(#SVGID_5_)" fill="none" stroke="#ACACAC" stroke-miterlimit="10" x1="22.4" y1="-9.5" x2="389.3" y2="307.3"/>
		
			<line clip-path="url(#SVGID_5_)" fill="none" stroke="#ACACAC" stroke-miterlimit="10" x1="18.4" y1="-9.5" x2="385.3" y2="307.3"/>
		
			<line clip-path="url(#SVGID_5_)" fill="none" stroke="#ACACAC" stroke-miterlimit="10" x1="14.4" y1="-9.5" x2="381.3" y2="307.3"/>
		
			<line clip-path="url(#SVGID_5_)" fill="none" stroke="#ACACAC" stroke-miterlimit="10" x1="10.4" y1="-9.5" x2="377.3" y2="307.3"/>
		
			<line clip-path="url(#SVGID_5_)" fill="none" stroke="#ACACAC" stroke-miterlimit="10" x1="6.4" y1="-9.5" x2="373.3" y2="307.3"/>
		
			<line clip-path="url(#SVGID_5_)" fill="none" stroke="#ACACAC" stroke-miterlimit="10" x1="2.4" y1="-9.5" x2="369.3" y2="307.3"/>
		
			<line clip-path="url(#SVGID_5_)" fill="none" stroke="#ACACAC" stroke-miterlimit="10" x1="-1.6" y1="-9.5" x2="365.3" y2="307.3"/>
		
			<line clip-path="url(#SVGID_5_)" fill="none" stroke="#ACACAC" stroke-miterlimit="10" x1="-5.6" y1="-9.5" x2="361.3" y2="307.3"/>
		
			<line clip-path="url(#SVGID_5_)" fill="none" stroke="#ACACAC" stroke-miterlimit="10" x1="-9.6" y1="-9.5" x2="357.3" y2="307.3"/>
		
			<line clip-path="url(#SVGID_5_)" fill="none" stroke="#ACACAC" stroke-miterlimit="10" x1="-13.6" y1="-9.5" x2="353.3" y2="307.3"/>
		
			<line clip-path="url(#SVGID_5_)" fill="none" stroke="#ACACAC" stroke-miterlimit="10" x1="-17.6" y1="-9.5" x2="349.3" y2="307.3"/>
		
			<line clip-path="url(#SVGID_5_)" fill="none" stroke="#ACACAC" stroke-miterlimit="10" x1="-21.6" y1="-9.5" x2="345.3" y2="307.3"/>
		
			<line clip-path="url(#SVGID_5_)" fill="none" stroke="#ACACAC" stroke-miterlimit="10" x1="-25.6" y1="-9.5" x2="341.3" y2="307.3"/>
		
			<line clip-path="url(#SVGID_5_)" fill="none" stroke="#ACACAC" stroke-miterlimit="10" x1="-29.6" y1="-9.5" x2="337.3" y2="307.3"/>
		
			<line clip-path="url(#SVGID_5_)" fill="none" stroke="#ACACAC" stroke-miterlimit="10" x1="-33.6" y1="-9.5" x2="333.3" y2="307.3"/>
		
			<line clip-path="url(#SVGID_5_)" fill="none" stroke="#ACACAC" stroke-miterlimit="10" x1="-37.6" y1="-9.5" x2="329.3" y2="307.3"/>
		
			<line clip-path="url(#SVGID_5_)" fill="none" stroke="#ACACAC" stroke-miterlimit="10" x1="-41.6" y1="-9.5" x2="325.3" y2="307.3"/>
		
			<line clip-path="url(#SVGID_5_)" fill="none" stroke="#ACACAC" stroke-miterlimit="10" x1="-45.6" y1="-9.5" x2="321.3" y2="307.3"/>
		
			<line clip-path="url(#SVGID_5_)" fill="none" stroke="#ACACAC" stroke-miterlimit="10" x1="-49.6" y1="-9.5" x2="317.3" y2="307.3"/>
		
			<line clip-path="url(#SVGID_5_)" fill="none" stroke="#ACACAC" stroke-miterlimit="10" x1="-53.6" y1="-9.5" x2="313.3" y2="307.3"/>
		
			<line clip-path="url(#SVGID_5_)" fill="none" stroke="#ACACAC" stroke-miterlimit="10" x1="-57.6" y1="-9.5" x2="309.3" y2="307.3"/>
		
			<line clip-path="url(#SVGID_5_)" fill="none" stroke="#ACACAC" stroke-miterlimit="10" x1="-61.6" y1="-9.5" x2="305.3" y2="307.3"/>
		
			<line clip-path="url(#SVGID_5_)" fill="none" stroke="#ACACAC" stroke-miterlimit="10" x1="-65.6" y1="-9.5" x2="301.3" y2="307.3"/>
		
			<line clip-path="url(#SVGID_5_)" fill="none" stroke="#ACACAC" stroke-miterlimit="10" x1="-69.6" y1="-9.5" x2="297.3" y2="307.3"/>
		
			<line clip-path="url(#SVGID_5_)" fill="none" stroke="#ACACAC" stroke-miterlimit="10" x1="-73.6" y1="-9.5" x2="293.3" y2="307.3"/>
		
			<line clip-path="url(#SVGID_5_)" fill="none" stroke="#ACACAC" stroke-miterlimit="10" x1="-77.6" y1="-9.5" x2="289.3" y2="307.3"/>
		
			<line clip-path="url(#SVGID_5_)" fill="none" stroke="#ACACAC" stroke-miterlimit="10" x1="-81.6" y1="-9.5" x2="285.3" y2="307.3"/>
		
			<line clip-path="url(#SVGID_5_)" fill="none" stroke="#ACACAC" stroke-miterlimit="10" x1="-85.6" y1="-9.5" x2="281.3" y2="307.3"/>
		
			<line clip-path="url(#SVGID_5_)" fill="none" stroke="#ACACAC" stroke-miterlimit="10" x1="-89.6" y1="-9.5" x2="277.3" y2="307.3"/>
		
			<line clip-path="url(#SVGID_5_)" fill="none" stroke="#ACACAC" stroke-miterlimit="10" x1="-93.6" y1="-9.5" x2="273.3" y2="307.3"/>
		
			<line clip-path="url(#SVGID_5_)" fill="none" stroke="#ACACAC" stroke-miterlimit="10" x1="-97.6" y1="-9.5" x2="269.3" y2="307.3"/>
		
			<line clip-path="url(#SVGID_5_)" fill="none" stroke="#ACACAC" stroke-miterlimit="10" x1="-101.6" y1="-9.5" x2="265.3" y2="307.3"/>
		
			<line clip-path="url(#SVGID_5_)" fill="none" stroke="#ACACAC" stroke-miterlimit="10" x1="-105.6" y1="-9.5" x2="261.3" y2="307.3"/>
		
			<line clip-path="url(#SVGID_5_)" fill="none" stroke="#ACACAC" stroke-miterlimit="10" x1="-109.6" y1="-9.5" x2="257.3" y2="307.3"/>
		
			<line clip-path="url(#SVGID_5_)" fill="none" stroke="#ACACAC" stroke-miterlimit="10" x1="-113.6" y1="-9.5" x2="253.3" y2="307.3"/>
		
			<line clip-path="url(#SVGID_5_)" fill="none" stroke="#ACACAC" stroke-miterlimit="10" x1="-117.6" y1="-9.5" x2="249.3" y2="307.3"/>
		
			<line clip-path="url(#SVGID_5_)" fill="none" stroke="#ACACAC" stroke-miterlimit="10" x1="-121.6" y1="-9.5" x2="245.3" y2="307.3"/>
		
			<line clip-path="url(#SVGID_5_)" fill="none" stroke="#ACACAC" stroke-miterlimit="10" x1="-125.6" y1="-9.5" x2="241.3" y2="307.3"/>
		
			<line clip-path="url(#SVGID_5_)" fill="none" stroke="#ACACAC" stroke-miterlimit="10" x1="-129.6" y1="-9.5" x2="237.3" y2="307.3"/>
		
			<line clip-path="url(#SVGID_5_)" fill="none" stroke="#ACACAC" stroke-miterlimit="10" x1="-133.6" y1="-9.5" x2="233.3" y2="307.3"/>
		
			<line clip-path="url(#SVGID_5_)" fill="none" stroke="#ACACAC" stroke-miterlimit="10" x1="-137.6" y1="-9.5" x2="229.3" y2="307.3"/>
		
			<line clip-path="url(#SVGID_5_)" fill="none" stroke="#ACACAC" stroke-miterlimit="10" x1="-141.6" y1="-9.5" x2="225.3" y2="307.3"/>
		
			<line clip-path="url(#SVGID_5_)" fill="none" stroke="#ACACAC" stroke-miterlimit="10" x1="-145.6" y1="-9.5" x2="221.3" y2="307.3"/>
		
			<line clip-path="url(#SVGID_5_)" fill="none" stroke="#ACACAC" stroke-miterlimit="10" x1="-149.6" y1="-9.5" x2="217.3" y2="307.3"/>
		
			<line clip-path="url(#SVGID_5_)" fill="none" stroke="#ACACAC" stroke-miterlimit="10" x1="-153.6" y1="-9.5" x2="213.3" y2="307.3"/>
		
			<line clip-path="url(#SVGID_5_)" fill="none" stroke="#ACACAC" stroke-miterlimit="10" x1="-157.6" y1="-9.5" x2="209.3" y2="307.3"/>
		
			<line clip-path="url(#SVGID_5_)" fill="none" stroke="#ACACAC" stroke-miterlimit="10" x1="-161.6" y1="-9.5" x2="205.3" y2="307.3"/>
		
			<line clip-path="url(#SVGID_5_)" fill="none" stroke="#ACACAC" stroke-miterlimit="10" x1="-165.6" y1="-9.5" x2="201.3" y2="307.3"/>
		
			<line clip-path="url(#SVGID_5_)" fill="none" stroke="#ACACAC" stroke-miterlimit="10" x1="-169.6" y1="-9.5" x2="197.3" y2="307.3"/>
		
			<line clip-path="url(#SVGID_5_)" fill="none" stroke="#ACACAC" stroke-miterlimit="10" x1="-173.6" y1="-9.5" x2="193.3" y2="307.3"/>
		
			<line clip-path="url(#SVGID_5_)" fill="none" stroke="#ACACAC" stroke-miterlimit="10" x1="-177.6" y1="-9.5" x2="189.3" y2="307.3"/>
		
			<line clip-path="url(#SVGID_5_)" fill="none" stroke="#ACACAC" stroke-miterlimit="10" x1="-181.6" y1="-9.5" x2="185.3" y2="307.3"/>
		
			<line clip-path="url(#SVGID_5_)" fill="none" stroke="#ACACAC" stroke-miterlimit="10" x1="-185.6" y1="-9.5" x2="181.3" y2="307.3"/>
		
			<line clip-path="url(#SVGID_5_)" fill="none" stroke="#ACACAC" stroke-miterlimit="10" x1="-189.6" y1="-9.5" x2="177.3" y2="307.3"/>
		
			<line clip-path="url(#SVGID_5_)" fill="none" stroke="#ACACAC" stroke-miterlimit="10" x1="-193.6" y1="-9.5" x2="173.3" y2="307.3"/>
		
			<line clip-path="url(#SVGID_5_)" fill="none" stroke="#ACACAC" stroke-miterlimit="10" x1="-197.6" y1="-9.5" x2="169.3" y2="307.3"/>
		
			<line clip-path="url(#SVGID_5_)" fill="none" stroke="#ACACAC" stroke-miterlimit="10" x1="-201.6" y1="-9.5" x2="165.3" y2="307.3"/>
		
			<line clip-path="url(#SVGID_5_)" fill="none" stroke="#ACACAC" stroke-miterlimit="10" x1="-205.6" y1="-9.5" x2="161.3" y2="307.3"/>
		
			<line clip-path="url(#SVGID_5_)" fill="none" stroke="#ACACAC" stroke-miterlimit="10" x1="-209.6" y1="-9.5" x2="157.3" y2="307.3"/>
		
			<line clip-path="url(#SVGID_5_)" fill="none" stroke="#ACACAC" stroke-miterlimit="10" x1="-213.6" y1="-9.5" x2="153.3" y2="307.3"/>
		
			<line clip-path="url(#SVGID_5_)" fill="none" stroke="#ACACAC" stroke-miterlimit="10" x1="-217.6" y1="-9.5" x2="149.3" y2="307.3"/>
		
			<line clip-path="url(#SVGID_5_)" fill="none" stroke="#ACACAC" stroke-miterlimit="10" x1="-221.6" y1="-9.5" x2="145.3" y2="307.3"/>
		
			<line clip-path="url(#SVGID_5_)" fill="none" stroke="#ACACAC" stroke-miterlimit="10" x1="-225.6" y1="-9.5" x2="141.3" y2="307.3"/>
		
			<line clip-path="url(#SVGID_5_)" fill="none" stroke="#ACACAC" stroke-miterlimit="10" x1="-229.6" y1="-9.5" x2="137.3" y2="307.3"/>
		
			<line clip-path="url(#SVGID_5_)" fill="none" stroke="#ACACAC" stroke-miterlimit="10" x1="-233.6" y1="-9.5" x2="133.3" y2="307.3"/>
		
			<line clip-path="url(#SVGID_5_)" fill="none" stroke="#ACACAC" stroke-miterlimit="10" x1="-237.6" y1="-9.5" x2="129.3" y2="307.3"/>
		
			<line clip-path="url(#SVGID_5_)" fill="none" stroke="#ACACAC" stroke-miterlimit="10" x1="-241.6" y1="-9.5" x2="125.3" y2="307.3"/>
		
			<line clip-path="url(#SVGID_5_)" fill="none" stroke="#ACACAC" stroke-miterlimit="10" x1="-245.6" y1="-9.5" x2="121.3" y2="307.3"/>
		
			<line clip-path="url(#SVGID_5_)" fill="none" stroke="#ACACAC" stroke-miterlimit="10" x1="-249.6" y1="-9.5" x2="117.3" y2="307.3"/>
		
			<line clip-path="url(#SVGID_5_)" fill="none" stroke="#ACACAC" stroke-miterlimit="10" x1="-253.6" y1="-9.5" x2="113.3" y2="307.3"/>
		
			<line clip-path="url(#SVGID_5_)" fill="none" stroke="#ACACAC" stroke-miterlimit="10" x1="-257.6" y1="-9.5" x2="109.3" y2="307.3"/>
		
			<line clip-path="url(#SVGID_5_)" fill="none" stroke="#ACACAC" stroke-miterlimit="10" x1="-261.6" y1="-9.5" x2="105.3" y2="307.3"/>
		
			<line clip-path="url(#SVGID_5_)" fill="none" stroke="#ACACAC" stroke-miterlimit="10" x1="-265.6" y1="-9.5" x2="101.3" y2="307.3"/>
		
			<line clip-path="url(#SVGID_5_)" fill="none" stroke="#ACACAC" stroke-miterlimit="10" x1="-269.6" y1="-9.5" x2="97.3" y2="307.3"/>
		
			<line clip-path="url(#SVGID_5_)" fill="none" stroke="#ACACAC" stroke-miterlimit="10" x1="-273.6" y1="-9.5" x2="93.3" y2="307.3"/>
		
			<line clip-path="url(#SVGID_5_)" fill="none" stroke="#ACACAC" stroke-miterlimit="10" x1="-277.6" y1="-9.5" x2="89.3" y2="307.3"/>
		
			<line clip-path="url(#SVGID_5_)" fill="none" stroke="#ACACAC" stroke-miterlimit="10" x1="-281.6" y1="-9.5" x2="85.3" y2="307.3"/>
		
			<line clip-path="url(#SVGID_5_)" fill="none" stroke="#ACACAC" stroke-miterlimit="10" x1="-285.6" y1="-9.5" x2="81.3" y2="307.3"/>
		
			<line clip-path="url(#SVGID_5_)" fill="none" stroke="#ACACAC" stroke-miterlimit="10" x1="526.4" y1="-9.5" x2="893.3" y2="307.3"/>
		
			<line clip-path="url(#SVGID_5_)" fill="none" stroke="#ACACAC" stroke-miterlimit="10" x1="534.4" y1="-9.5" x2="901.3" y2="307.3"/>
		
			<line clip-path="url(#SVGID_5_)" fill="none" stroke="#ACACAC" stroke-miterlimit="10" x1="542.4" y1="-9.5" x2="909.3" y2="307.3"/>
		
			<line clip-path="url(#SVGID_5_)" fill="none" stroke="#ACACAC" stroke-miterlimit="10" x1="550.4" y1="-9.5" x2="917.3" y2="307.3"/>
		
			<line clip-path="url(#SVGID_5_)" fill="none" stroke="#ACACAC" stroke-miterlimit="10" x1="558.4" y1="-9.5" x2="925.3" y2="307.3"/>
		
			<line clip-path="url(#SVGID_5_)" fill="none" stroke="#ACACAC" stroke-miterlimit="10" x1="566.4" y1="-9.5" x2="933.3" y2="307.3"/>
		
			<line clip-path="url(#SVGID_5_)" fill="none" stroke="#ACACAC" stroke-miterlimit="10" x1="574.4" y1="-9.5" x2="941.3" y2="307.3"/>
		
			<line clip-path="url(#SVGID_5_)" fill="none" stroke="#ACACAC" stroke-miterlimit="10" x1="582.4" y1="-9.5" x2="949.3" y2="307.3"/>
		
			<line clip-path="url(#SVGID_5_)" fill="none" stroke="#ACACAC" stroke-miterlimit="10" x1="590.4" y1="-9.5" x2="957.3" y2="307.3"/>
		
			<line clip-path="url(#SVGID_5_)" fill="none" stroke="#ACACAC" stroke-miterlimit="10" x1="598.4" y1="-9.5" x2="965.3" y2="307.3"/>
		
			<line clip-path="url(#SVGID_5_)" fill="none" stroke="#ACACAC" stroke-miterlimit="10" x1="606.4" y1="-9.5" x2="973.3" y2="307.3"/>
		
			<line clip-path="url(#SVGID_5_)" fill="none" stroke="#ACACAC" stroke-miterlimit="10" x1="614.4" y1="-9.5" x2="981.3" y2="307.3"/>
		
			<line clip-path="url(#SVGID_5_)" fill="none" stroke="#ACACAC" stroke-miterlimit="10" x1="622.4" y1="-9.5" x2="989.3" y2="307.3"/>
		
			<line clip-path="url(#SVGID_5_)" fill="none" stroke="#ACACAC" stroke-miterlimit="10" x1="630.4" y1="-9.5" x2="997.3" y2="307.3"/>
		
			<line clip-path="url(#SVGID_5_)" fill="none" stroke="#ACACAC" stroke-miterlimit="10" x1="638.4" y1="-9.5" x2="1005.3" y2="307.3"/>
		
			<line clip-path="url(#SVGID_5_)" fill="none" stroke="#ACACAC" stroke-miterlimit="10" x1="646.4" y1="-9.5" x2="1013.3" y2="307.3"/>
		
			<line clip-path="url(#SVGID_5_)" fill="none" stroke="#ACACAC" stroke-miterlimit="10" x1="654.4" y1="-9.5" x2="1021.3" y2="307.3"/>
		
			<line clip-path="url(#SVGID_5_)" fill="none" stroke="#ACACAC" stroke-miterlimit="10" x1="662.4" y1="-9.5" x2="1029.3" y2="307.3"/>
		
			<line clip-path="url(#SVGID_5_)" fill="none" stroke="#ACACAC" stroke-miterlimit="10" x1="670.4" y1="-9.5" x2="1037.3" y2="307.3"/>
		
			<line clip-path="url(#SVGID_5_)" fill="none" stroke="#ACACAC" stroke-miterlimit="10" x1="678.4" y1="-9.5" x2="1045.3" y2="307.3"/>
		
			<line clip-path="url(#SVGID_5_)" fill="none" stroke="#ACACAC" stroke-miterlimit="10" x1="686.4" y1="-9.5" x2="1053.3" y2="307.3"/>
		
			<line clip-path="url(#SVGID_5_)" fill="none" stroke="#ACACAC" stroke-miterlimit="10" x1="694.4" y1="-9.5" x2="1061.3" y2="307.3"/>
		
			<line clip-path="url(#SVGID_5_)" fill="none" stroke="#ACACAC" stroke-miterlimit="10" x1="702.4" y1="-9.5" x2="1069.3" y2="307.3"/>
		
			<line clip-path="url(#SVGID_5_)" fill="none" stroke="#ACACAC" stroke-miterlimit="10" x1="710.4" y1="-9.5" x2="1077.3" y2="307.3"/>
		
			<line clip-path="url(#SVGID_5_)" fill="none" stroke="#ACACAC" stroke-miterlimit="10" x1="718.4" y1="-9.5" x2="1085.3" y2="307.3"/>
		
			<line clip-path="url(#SVGID_5_)" fill="none" stroke="#ACACAC" stroke-miterlimit="10" x1="726.4" y1="-9.5" x2="1093.3" y2="307.3"/>
		
			<line clip-path="url(#SVGID_5_)" fill="none" stroke="#ACACAC" stroke-miterlimit="10" x1="734.4" y1="-9.5" x2="1101.3" y2="307.3"/>
		
			<line clip-path="url(#SVGID_5_)" fill="none" stroke="#ACACAC" stroke-miterlimit="10" x1="742.4" y1="-9.5" x2="1109.3" y2="307.3"/>
		
			<line clip-path="url(#SVGID_5_)" fill="none" stroke="#ACACAC" stroke-miterlimit="10" x1="750.4" y1="-9.5" x2="1117.3" y2="307.3"/>
		
			<line clip-path="url(#SVGID_5_)" fill="none" stroke="#ACACAC" stroke-miterlimit="10" x1="758.4" y1="-9.5" x2="1125.3" y2="307.3"/>
		
			<line clip-path="url(#SVGID_5_)" fill="none" stroke="#ACACAC" stroke-miterlimit="10" x1="766.4" y1="-9.5" x2="1133.3" y2="307.3"/>
		
			<line clip-path="url(#SVGID_5_)" fill="none" stroke="#ACACAC" stroke-miterlimit="10" x1="774.4" y1="-9.5" x2="1141.3" y2="307.3"/>
		
			<line clip-path="url(#SVGID_5_)" fill="none" stroke="#ACACAC" stroke-miterlimit="10" x1="782.4" y1="-9.5" x2="1149.3" y2="307.3"/>
		
			<line clip-path="url(#SVGID_5_)" fill="none" stroke="#ACACAC" stroke-miterlimit="10" x1="790.4" y1="-9.5" x2="1157.3" y2="307.3"/>
		
			<line clip-path="url(#SVGID_5_)" fill="none" stroke="#ACACAC" stroke-miterlimit="10" x1="798.4" y1="-9.5" x2="1165.3" y2="307.3"/>
		
			<line clip-path="url(#SVGID_5_)" fill="none" stroke="#ACACAC" stroke-miterlimit="10" x1="806.4" y1="-9.5" x2="1173.3" y2="307.3"/>
		
			<line clip-path="url(#SVGID_5_)" fill="none" stroke="#ACACAC" stroke-miterlimit="10" x1="814.4" y1="-9.5" x2="1181.3" y2="307.3"/>
		
			<line clip-path="url(#SVGID_5_)" fill="none" stroke="#ACACAC" stroke-miterlimit="10" x1="822.4" y1="-9.5" x2="1189.3" y2="307.3"/>
		
			<line clip-path="url(#SVGID_5_)" fill="none" stroke="#ACACAC" stroke-miterlimit="10" x1="830.4" y1="-9.5" x2="1197.3" y2="307.3"/>
		
			<line clip-path="url(#SVGID_5_)" fill="none" stroke="#ACACAC" stroke-miterlimit="10" x1="838.4" y1="-9.5" x2="1205.3" y2="307.3"/>
		
			<line clip-path="url(#SVGID_5_)" fill="none" stroke="#ACACAC" stroke-miterlimit="10" x1="846.4" y1="-9.5" x2="1213.3" y2="307.3"/>
		
			<line clip-path="url(#SVGID_5_)" fill="none" stroke="#ACACAC" stroke-miterlimit="10" x1="854.4" y1="-9.5" x2="1221.3" y2="307.3"/>
		
			<line clip-path="url(#SVGID_5_)" fill="none" stroke="#ACACAC" stroke-miterlimit="10" x1="862.4" y1="-9.5" x2="1229.3" y2="307.3"/>
		
			<line clip-path="url(#SVGID_5_)" fill="none" stroke="#ACACAC" stroke-miterlimit="10" x1="870.4" y1="-9.5" x2="1237.3" y2="307.3"/>
		
			<line clip-path="url(#SVGID_5_)" fill="none" stroke="#ACACAC" stroke-miterlimit="10" x1="878.4" y1="-9.5" x2="1245.3" y2="307.3"/>
		
			<line clip-path="url(#SVGID_5_)" fill="none" stroke="#ACACAC" stroke-miterlimit="10" x1="886.4" y1="-9.5" x2="1253.3" y2="307.3"/>
		
			<line clip-path="url(#SVGID_5_)" fill="none" stroke="#ACACAC" stroke-miterlimit="10" x1="894.4" y1="-9.5" x2="1261.3" y2="307.3"/>
		
			<line clip-path="url(#SVGID_5_)" fill="none" stroke="#ACACAC" stroke-miterlimit="10" x1="902.4" y1="-9.5" x2="1269.3" y2="307.3"/>
		
			<line clip-path="url(#SVGID_5_)" fill="none" stroke="#ACACAC" stroke-miterlimit="10" x1="910.4" y1="-9.5" x2="1277.3" y2="307.3"/>
		
			<line clip-path="url(#SVGID_5_)" fill="none" stroke="#ACACAC" stroke-miterlimit="10" x1="918.4" y1="-9.5" x2="1285.3" y2="307.3"/>
		
			<line clip-path="url(#SVGID_5_)" fill="none" stroke="#ACACAC" stroke-miterlimit="10" x1="926.4" y1="-9.5" x2="1293.3" y2="307.3"/>
		
			<line clip-path="url(#SVGID_5_)" fill="none" stroke="#ACACAC" stroke-miterlimit="10" x1="934.4" y1="-9.5" x2="1301.3" y2="307.3"/>
		
			<line clip-path="url(#SVGID_5_)" fill="none" stroke="#ACACAC" stroke-miterlimit="10" x1="942.4" y1="-9.5" x2="1309.3" y2="307.3"/>
		
			<line clip-path="url(#SVGID_5_)" fill="none" stroke="#ACACAC" stroke-miterlimit="10" x1="950.4" y1="-9.5" x2="1317.3" y2="307.3"/>
		
			<line clip-path="url(#SVGID_5_)" fill="none" stroke="#ACACAC" stroke-miterlimit="10" x1="958.4" y1="-9.5" x2="1325.3" y2="307.3"/>
		
			<line clip-path="url(#SVGID_5_)" fill="none" stroke="#ACACAC" stroke-miterlimit="10" x1="966.4" y1="-9.5" x2="1333.3" y2="307.3"/>
		
			<line clip-path="url(#SVGID_5_)" fill="none" stroke="#ACACAC" stroke-miterlimit="10" x1="974.4" y1="-9.5" x2="1341.3" y2="307.3"/>
		
			<line clip-path="url(#SVGID_5_)" fill="none" stroke="#ACACAC" stroke-miterlimit="10" x1="982.4" y1="-9.5" x2="1349.3" y2="307.3"/>
		
			<line clip-path="url(#SVGID_5_)" fill="none" stroke="#ACACAC" stroke-miterlimit="10" x1="990.4" y1="-9.5" x2="1357.3" y2="307.3"/>
		
			<line clip-path="url(#SVGID_5_)" fill="none" stroke="#ACACAC" stroke-miterlimit="10" x1="998.4" y1="-9.5" x2="1365.3" y2="307.3"/>
		
			<line clip-path="url(#SVGID_5_)" fill="none" stroke="#ACACAC" stroke-miterlimit="10" x1="1006.4" y1="-9.5" x2="1373.3" y2="307.3"/>
		
			<line clip-path="url(#SVGID_5_)" fill="none" stroke="#ACACAC" stroke-miterlimit="10" x1="1014.4" y1="-9.5" x2="1381.3" y2="307.3"/>
		
			<line clip-path="url(#SVGID_5_)" fill="none" stroke="#ACACAC" stroke-miterlimit="10" x1="1022.4" y1="-9.5" x2="1389.3" y2="307.3"/>
		
			<line clip-path="url(#SVGID_5_)" fill="none" stroke="#ACACAC" stroke-miterlimit="10" x1="1030.4" y1="-9.5" x2="1397.3" y2="307.3"/>
		
			<line clip-path="url(#SVGID_5_)" fill="none" stroke="#ACACAC" stroke-miterlimit="10" x1="1038.4" y1="-9.5" x2="1405.3" y2="307.3"/>
		
			<line clip-path="url(#SVGID_5_)" fill="none" stroke="#ACACAC" stroke-miterlimit="10" x1="1046.4" y1="-9.5" x2="1413.3" y2="307.3"/>
		
			<line clip-path="url(#SVGID_5_)" fill="none" stroke="#ACACAC" stroke-miterlimit="10" x1="1054.4" y1="-9.5" x2="1421.3" y2="307.3"/>
		
			<line clip-path="url(#SVGID_5_)" fill="none" stroke="#ACACAC" stroke-miterlimit="10" x1="1062.4" y1="-9.5" x2="1429.3" y2="307.3"/>
		
			<line clip-path="url(#SVGID_5_)" fill="none" stroke="#ACACAC" stroke-miterlimit="10" x1="1070.4" y1="-9.5" x2="1437.3" y2="307.3"/>
		
			<line clip-path="url(#SVGID_5_)" fill="none" stroke="#ACACAC" stroke-miterlimit="10" x1="1078.4" y1="-9.5" x2="1445.3" y2="307.3"/>
		
			<line clip-path="url(#SVGID_5_)" fill="none" stroke="#ACACAC" stroke-miterlimit="10" x1="1086.4" y1="-9.5" x2="1453.3" y2="307.3"/>
		
			<line clip-path="url(#SVGID_5_)" fill="none" stroke="#ACACAC" stroke-miterlimit="10" x1="1094.4" y1="-9.5" x2="1461.3" y2="307.3"/>
		
			<line clip-path="url(#SVGID_5_)" fill="none" stroke="#ACACAC" stroke-miterlimit="10" x1="1102.4" y1="-9.5" x2="1469.3" y2="307.3"/>
		
			<line clip-path="url(#SVGID_5_)" fill="none" stroke="#ACACAC" stroke-miterlimit="10" x1="1110.4" y1="-9.5" x2="1477.3" y2="307.3"/>
		
			<line clip-path="url(#SVGID_5_)" fill="none" stroke="#ACACAC" stroke-miterlimit="10" x1="1118.4" y1="-9.5" x2="1485.3" y2="307.3"/>
		
			<line clip-path="url(#SVGID_5_)" fill="none" stroke="#ACACAC" stroke-miterlimit="10" x1="1126.4" y1="-9.5" x2="1493.3" y2="307.3"/>
		
			<line clip-path="url(#SVGID_5_)" fill="none" stroke="#ACACAC" stroke-miterlimit="10" x1="1134.4" y1="-9.5" x2="1501.3" y2="307.3"/>
		
			<line clip-path="url(#SVGID_5_)" fill="none" stroke="#ACACAC" stroke-miterlimit="10" x1="522.4" y1="-9.5" x2="889.3" y2="307.3"/>
		
			<line clip-path="url(#SVGID_5_)" fill="none" stroke="#ACACAC" stroke-miterlimit="10" x1="530.4" y1="-9.5" x2="897.3" y2="307.3"/>
		
			<line clip-path="url(#SVGID_5_)" fill="none" stroke="#ACACAC" stroke-miterlimit="10" x1="538.4" y1="-9.5" x2="905.3" y2="307.3"/>
		
			<line clip-path="url(#SVGID_5_)" fill="none" stroke="#ACACAC" stroke-miterlimit="10" x1="546.4" y1="-9.5" x2="913.3" y2="307.3"/>
		
			<line clip-path="url(#SVGID_5_)" fill="none" stroke="#ACACAC" stroke-miterlimit="10" x1="554.4" y1="-9.5" x2="921.3" y2="307.3"/>
		
			<line clip-path="url(#SVGID_5_)" fill="none" stroke="#ACACAC" stroke-miterlimit="10" x1="562.4" y1="-9.5" x2="929.3" y2="307.3"/>
		
			<line clip-path="url(#SVGID_5_)" fill="none" stroke="#ACACAC" stroke-miterlimit="10" x1="570.4" y1="-9.5" x2="937.3" y2="307.3"/>
		
			<line clip-path="url(#SVGID_5_)" fill="none" stroke="#ACACAC" stroke-miterlimit="10" x1="578.4" y1="-9.5" x2="945.3" y2="307.3"/>
		
			<line clip-path="url(#SVGID_5_)" fill="none" stroke="#ACACAC" stroke-miterlimit="10" x1="586.4" y1="-9.5" x2="953.3" y2="307.3"/>
		
			<line clip-path="url(#SVGID_5_)" fill="none" stroke="#ACACAC" stroke-miterlimit="10" x1="594.4" y1="-9.5" x2="961.3" y2="307.3"/>
		
			<line clip-path="url(#SVGID_5_)" fill="none" stroke="#ACACAC" stroke-miterlimit="10" x1="602.4" y1="-9.5" x2="969.3" y2="307.3"/>
		
			<line clip-path="url(#SVGID_5_)" fill="none" stroke="#ACACAC" stroke-miterlimit="10" x1="610.4" y1="-9.5" x2="977.3" y2="307.3"/>
		
			<line clip-path="url(#SVGID_5_)" fill="none" stroke="#ACACAC" stroke-miterlimit="10" x1="618.4" y1="-9.5" x2="985.3" y2="307.3"/>
		
			<line clip-path="url(#SVGID_5_)" fill="none" stroke="#ACACAC" stroke-miterlimit="10" x1="626.4" y1="-9.5" x2="993.3" y2="307.3"/>
		
			<line clip-path="url(#SVGID_5_)" fill="none" stroke="#ACACAC" stroke-miterlimit="10" x1="634.4" y1="-9.5" x2="1001.3" y2="307.3"/>
		
			<line clip-path="url(#SVGID_5_)" fill="none" stroke="#ACACAC" stroke-miterlimit="10" x1="642.4" y1="-9.5" x2="1009.3" y2="307.3"/>
		
			<line clip-path="url(#SVGID_5_)" fill="none" stroke="#ACACAC" stroke-miterlimit="10" x1="650.4" y1="-9.5" x2="1017.3" y2="307.3"/>
		
			<line clip-path="url(#SVGID_5_)" fill="none" stroke="#ACACAC" stroke-miterlimit="10" x1="658.4" y1="-9.5" x2="1025.3" y2="307.3"/>
		
			<line clip-path="url(#SVGID_5_)" fill="none" stroke="#ACACAC" stroke-miterlimit="10" x1="666.4" y1="-9.5" x2="1033.3" y2="307.3"/>
		
			<line clip-path="url(#SVGID_5_)" fill="none" stroke="#ACACAC" stroke-miterlimit="10" x1="674.4" y1="-9.5" x2="1041.3" y2="307.3"/>
		
			<line clip-path="url(#SVGID_5_)" fill="none" stroke="#ACACAC" stroke-miterlimit="10" x1="682.4" y1="-9.5" x2="1049.3" y2="307.3"/>
		
			<line clip-path="url(#SVGID_5_)" fill="none" stroke="#ACACAC" stroke-miterlimit="10" x1="690.4" y1="-9.5" x2="1057.3" y2="307.3"/>
		
			<line clip-path="url(#SVGID_5_)" fill="none" stroke="#ACACAC" stroke-miterlimit="10" x1="698.4" y1="-9.5" x2="1065.3" y2="307.3"/>
		
			<line clip-path="url(#SVGID_5_)" fill="none" stroke="#ACACAC" stroke-miterlimit="10" x1="706.4" y1="-9.5" x2="1073.3" y2="307.3"/>
		
			<line clip-path="url(#SVGID_5_)" fill="none" stroke="#ACACAC" stroke-miterlimit="10" x1="714.4" y1="-9.5" x2="1081.3" y2="307.3"/>
		
			<line clip-path="url(#SVGID_5_)" fill="none" stroke="#ACACAC" stroke-miterlimit="10" x1="722.4" y1="-9.5" x2="1089.3" y2="307.3"/>
		
			<line clip-path="url(#SVGID_5_)" fill="none" stroke="#ACACAC" stroke-miterlimit="10" x1="730.4" y1="-9.5" x2="1097.3" y2="307.3"/>
		
			<line clip-path="url(#SVGID_5_)" fill="none" stroke="#ACACAC" stroke-miterlimit="10" x1="738.4" y1="-9.5" x2="1105.3" y2="307.3"/>
		
			<line clip-path="url(#SVGID_5_)" fill="none" stroke="#ACACAC" stroke-miterlimit="10" x1="746.4" y1="-9.5" x2="1113.3" y2="307.3"/>
		
			<line clip-path="url(#SVGID_5_)" fill="none" stroke="#ACACAC" stroke-miterlimit="10" x1="754.4" y1="-9.5" x2="1121.3" y2="307.3"/>
		
			<line clip-path="url(#SVGID_5_)" fill="none" stroke="#ACACAC" stroke-miterlimit="10" x1="762.4" y1="-9.5" x2="1129.3" y2="307.3"/>
		
			<line clip-path="url(#SVGID_5_)" fill="none" stroke="#ACACAC" stroke-miterlimit="10" x1="770.4" y1="-9.5" x2="1137.3" y2="307.3"/>
		
			<line clip-path="url(#SVGID_5_)" fill="none" stroke="#ACACAC" stroke-miterlimit="10" x1="778.4" y1="-9.5" x2="1145.3" y2="307.3"/>
		
			<line clip-path="url(#SVGID_5_)" fill="none" stroke="#ACACAC" stroke-miterlimit="10" x1="786.4" y1="-9.5" x2="1153.3" y2="307.3"/>
		
			<line clip-path="url(#SVGID_5_)" fill="none" stroke="#ACACAC" stroke-miterlimit="10" x1="794.4" y1="-9.5" x2="1161.3" y2="307.3"/>
		
			<line clip-path="url(#SVGID_5_)" fill="none" stroke="#ACACAC" stroke-miterlimit="10" x1="802.4" y1="-9.5" x2="1169.3" y2="307.3"/>
		
			<line clip-path="url(#SVGID_5_)" fill="none" stroke="#ACACAC" stroke-miterlimit="10" x1="810.4" y1="-9.5" x2="1177.3" y2="307.3"/>
		
			<line clip-path="url(#SVGID_5_)" fill="none" stroke="#ACACAC" stroke-miterlimit="10" x1="818.4" y1="-9.5" x2="1185.3" y2="307.3"/>
		
			<line clip-path="url(#SVGID_5_)" fill="none" stroke="#ACACAC" stroke-miterlimit="10" x1="826.4" y1="-9.5" x2="1193.3" y2="307.3"/>
		
			<line clip-path="url(#SVGID_5_)" fill="none" stroke="#ACACAC" stroke-miterlimit="10" x1="834.4" y1="-9.5" x2="1201.3" y2="307.3"/>
		
			<line clip-path="url(#SVGID_5_)" fill="none" stroke="#ACACAC" stroke-miterlimit="10" x1="842.4" y1="-9.5" x2="1209.3" y2="307.3"/>
		
			<line clip-path="url(#SVGID_5_)" fill="none" stroke="#ACACAC" stroke-miterlimit="10" x1="850.4" y1="-9.5" x2="1217.3" y2="307.3"/>
		
			<line clip-path="url(#SVGID_5_)" fill="none" stroke="#ACACAC" stroke-miterlimit="10" x1="858.4" y1="-9.5" x2="1225.3" y2="307.3"/>
		
			<line clip-path="url(#SVGID_5_)" fill="none" stroke="#ACACAC" stroke-miterlimit="10" x1="866.4" y1="-9.5" x2="1233.3" y2="307.3"/>
		
			<line clip-path="url(#SVGID_5_)" fill="none" stroke="#ACACAC" stroke-miterlimit="10" x1="874.4" y1="-9.5" x2="1241.3" y2="307.3"/>
		
			<line clip-path="url(#SVGID_5_)" fill="none" stroke="#ACACAC" stroke-miterlimit="10" x1="882.4" y1="-9.5" x2="1249.3" y2="307.3"/>
		
			<line clip-path="url(#SVGID_5_)" fill="none" stroke="#ACACAC" stroke-miterlimit="10" x1="890.4" y1="-9.5" x2="1257.3" y2="307.3"/>
		
			<line clip-path="url(#SVGID_5_)" fill="none" stroke="#ACACAC" stroke-miterlimit="10" x1="898.4" y1="-9.5" x2="1265.3" y2="307.3"/>
		
			<line clip-path="url(#SVGID_5_)" fill="none" stroke="#ACACAC" stroke-miterlimit="10" x1="906.4" y1="-9.5" x2="1273.3" y2="307.3"/>
		
			<line clip-path="url(#SVGID_5_)" fill="none" stroke="#ACACAC" stroke-miterlimit="10" x1="914.4" y1="-9.5" x2="1281.3" y2="307.3"/>
		
			<line clip-path="url(#SVGID_5_)" fill="none" stroke="#ACACAC" stroke-miterlimit="10" x1="922.4" y1="-9.5" x2="1289.3" y2="307.3"/>
		
			<line clip-path="url(#SVGID_5_)" fill="none" stroke="#ACACAC" stroke-miterlimit="10" x1="930.4" y1="-9.5" x2="1297.3" y2="307.3"/>
		
			<line clip-path="url(#SVGID_5_)" fill="none" stroke="#ACACAC" stroke-miterlimit="10" x1="938.4" y1="-9.5" x2="1305.3" y2="307.3"/>
		
			<line clip-path="url(#SVGID_5_)" fill="none" stroke="#ACACAC" stroke-miterlimit="10" x1="946.4" y1="-9.5" x2="1313.3" y2="307.3"/>
		
			<line clip-path="url(#SVGID_5_)" fill="none" stroke="#ACACAC" stroke-miterlimit="10" x1="954.4" y1="-9.5" x2="1321.3" y2="307.3"/>
		
			<line clip-path="url(#SVGID_5_)" fill="none" stroke="#ACACAC" stroke-miterlimit="10" x1="962.4" y1="-9.5" x2="1329.3" y2="307.3"/>
		
			<line clip-path="url(#SVGID_5_)" fill="none" stroke="#ACACAC" stroke-miterlimit="10" x1="970.4" y1="-9.5" x2="1337.3" y2="307.3"/>
		
			<line clip-path="url(#SVGID_5_)" fill="none" stroke="#ACACAC" stroke-miterlimit="10" x1="978.4" y1="-9.5" x2="1345.3" y2="307.3"/>
		
			<line clip-path="url(#SVGID_5_)" fill="none" stroke="#ACACAC" stroke-miterlimit="10" x1="986.4" y1="-9.5" x2="1353.3" y2="307.3"/>
		
			<line clip-path="url(#SVGID_5_)" fill="none" stroke="#ACACAC" stroke-miterlimit="10" x1="994.4" y1="-9.5" x2="1361.3" y2="307.3"/>
		
			<line clip-path="url(#SVGID_5_)" fill="none" stroke="#ACACAC" stroke-miterlimit="10" x1="1002.4" y1="-9.5" x2="1369.3" y2="307.3"/>
		
			<line clip-path="url(#SVGID_5_)" fill="none" stroke="#ACACAC" stroke-miterlimit="10" x1="1010.4" y1="-9.5" x2="1377.3" y2="307.3"/>
		
			<line clip-path="url(#SVGID_5_)" fill="none" stroke="#ACACAC" stroke-miterlimit="10" x1="1018.4" y1="-9.5" x2="1385.3" y2="307.3"/>
		
			<line clip-path="url(#SVGID_5_)" fill="none" stroke="#ACACAC" stroke-miterlimit="10" x1="1026.4" y1="-9.5" x2="1393.3" y2="307.3"/>
		
			<line clip-path="url(#SVGID_5_)" fill="none" stroke="#ACACAC" stroke-miterlimit="10" x1="1034.4" y1="-9.5" x2="1401.3" y2="307.3"/>
		
			<line clip-path="url(#SVGID_5_)" fill="none" stroke="#ACACAC" stroke-miterlimit="10" x1="1042.4" y1="-9.5" x2="1409.3" y2="307.3"/>
		
			<line clip-path="url(#SVGID_5_)" fill="none" stroke="#ACACAC" stroke-miterlimit="10" x1="1050.4" y1="-9.5" x2="1417.3" y2="307.3"/>
		
			<line clip-path="url(#SVGID_5_)" fill="none" stroke="#ACACAC" stroke-miterlimit="10" x1="1058.4" y1="-9.5" x2="1425.3" y2="307.3"/>
		
			<line clip-path="url(#SVGID_5_)" fill="none" stroke="#ACACAC" stroke-miterlimit="10" x1="1066.4" y1="-9.5" x2="1433.3" y2="307.3"/>
		
			<line clip-path="url(#SVGID_5_)" fill="none" stroke="#ACACAC" stroke-miterlimit="10" x1="1074.4" y1="-9.5" x2="1441.3" y2="307.3"/>
		
			<line clip-path="url(#SVGID_5_)" fill="none" stroke="#ACACAC" stroke-miterlimit="10" x1="1082.4" y1="-9.5" x2="1449.3" y2="307.3"/>
		
			<line clip-path="url(#SVGID_5_)" fill="none" stroke="#ACACAC" stroke-miterlimit="10" x1="1090.4" y1="-9.5" x2="1457.3" y2="307.3"/>
		
			<line clip-path="url(#SVGID_5_)" fill="none" stroke="#ACACAC" stroke-miterlimit="10" x1="1098.4" y1="-9.5" x2="1465.3" y2="307.3"/>
		
			<line clip-path="url(#SVGID_5_)" fill="none" stroke="#ACACAC" stroke-miterlimit="10" x1="1106.4" y1="-9.5" x2="1473.3" y2="307.3"/>
		
			<line clip-path="url(#SVGID_5_)" fill="none" stroke="#ACACAC" stroke-miterlimit="10" x1="1114.4" y1="-9.5" x2="1481.3" y2="307.3"/>
		
			<line clip-path="url(#SVGID_5_)" fill="none" stroke="#ACACAC" stroke-miterlimit="10" x1="1122.4" y1="-9.5" x2="1489.3" y2="307.3"/>
		
			<line clip-path="url(#SVGID_5_)" fill="none" stroke="#ACACAC" stroke-miterlimit="10" x1="1130.4" y1="-9.5" x2="1497.3" y2="307.3"/>
	</g>
</svg>
